<svg width="217" height="36" xmlns="http://www.w3.org/2000/svg" xmlns:xlink="http://www.w3.org/1999/xlink" xml:space="preserve" overflow="hidden"><defs><clipPath id="clip0"><rect x="260" y="236" width="217" height="36"/></clipPath><clipPath id="clip1"><rect x="261" y="237" width="216" height="34"/></clipPath><clipPath id="clip2"><rect x="261" y="237" width="216" height="34"/></clipPath></defs><g clip-path="url(#clip0)" transform="translate(-260 -236)"><g clip-path="url(#clip1)"><g clip-path="url(#clip2)"><path d="M122.749 0 124.436 0 124.436 33.794 122.749 33.794Z" fill="#231F20" fill-rule="nonzero" fill-opacity="1" transform="matrix(1 0 0 1.0061 261.138 237)"/><path d="M53.0808 27.2151 53.7555 27.2151 57.1855 31.9384 57.1855 27.2151 57.7759 27.2151 57.7759 32.9506 57.2136 32.9506 53.6712 28.0867 53.6712 32.9506 53.0808 32.9506 53.0808 27.2151Z" fill="#231F20" fill-rule="nonzero" fill-opacity="1" transform="matrix(1 0 0 1.0061 261.138 237)"/><path d="M59.2098 27.2151 63.0053 27.2151 63.0053 27.8055 59.8283 27.8055 59.8283 29.6892 62.9209 29.6892 62.9209 30.2515 59.8283 30.2515 59.8283 32.3883 63.0334 32.3883 63.0334 32.9506 59.2098 32.9506 59.2098 27.2151Z" fill="#231F20" fill-rule="nonzero" fill-opacity="1" transform="matrix(1 0 0 1.0061 261.138 237)"/><path d="M66.0698 27.7774 63.9331 27.7774 63.9331 27.187 68.8532 27.187 68.8532 27.7774 66.7164 27.7774 66.7164 32.9224 66.0698 32.9224 66.0698 27.7774Z" fill="#231F20" fill-rule="nonzero" fill-opacity="1" transform="matrix(1 0 0 1.0061 261.138 237)"/><path d="M69.5842 27.2151 70.2027 27.2151 71.7209 31.9665 73.2672 27.2151 73.8014 27.2151 75.3196 31.9665 76.8378 27.2151 77.4282 27.2151 75.6007 32.9787 75.0665 32.9787 73.5202 28.1992 71.9739 32.9787 71.4116 32.9787 69.5842 27.2151Z" fill="#231F20" fill-rule="nonzero" fill-opacity="1" transform="matrix(1 0 0 1.0061 261.138 237)"/><path d="M77.9624 30.0547C77.9624 28.0024 79.0026 27.1027 80.8301 27.1027 82.6575 27.1027 83.7259 28.0024 83.7259 30.0547 83.7259 32.1071 82.6857 33.0068 80.8301 33.0068 79.0026 33.0349 77.9624 32.1071 77.9624 30.0547ZM83.1074 30.0828C83.1074 28.5365 82.3764 27.6931 80.8301 27.6931 79.2838 27.6931 78.5528 28.5365 78.5528 30.0828 78.5528 31.6292 79.2556 32.4726 80.8301 32.4726 82.4045 32.4726 83.1074 31.6292 83.1074 30.0828Z" fill="#231F20" fill-rule="nonzero" fill-opacity="1" transform="matrix(1 0 0 1.0061 261.138 237)"/><path d="M87.2684 30.5889 85.5534 30.5889 85.5534 32.9224 84.963 32.9224 84.963 27.2151 87.4371 27.2151C88.7585 27.2151 89.377 27.7493 89.377 28.8739 89.377 29.8579 88.899 30.4483 87.915 30.5608L89.2926 32.9224 88.646 32.9224 87.2684 30.5889ZM87.4371 30.0547C88.2524 30.0547 88.7585 29.8017 88.7585 28.902 88.7585 28.0024 88.2805 27.7774 87.4089 27.7774L85.5534 27.7774 85.5534 30.0547 87.4371 30.0547Z" fill="#231F20" fill-rule="nonzero" fill-opacity="1" transform="matrix(1 0 0 1.0061 261.138 237)"/><path d="M92.4134 29.886 91.2607 31.1512 91.2607 32.9506 90.6703 32.9506 90.6703 27.2151 91.2607 27.2151 91.2607 30.364 94.1565 27.2151 94.8594 27.2151 92.807 29.4643 95.1405 32.9506 94.4658 32.9506 92.4134 29.886Z" fill="#231F20" fill-rule="nonzero" fill-opacity="1" transform="matrix(1 0 0 1.0061 261.138 237)"/><path d="M95.6466 32.3601 95.9558 31.9103C96.6306 32.332 97.3054 32.5007 98.0082 32.5007 99.189 32.5007 99.7232 32.1633 99.7232 31.3761 99.7232 30.5608 99.0485 30.4483 98.0082 30.2515 96.7712 30.0266 95.9277 29.8298 95.9277 28.6771 95.9277 27.5806 96.6306 27.1308 98.0082 27.1308 98.9079 27.1308 99.5545 27.3276 100.004 27.6369L99.667 28.1429C99.2453 27.8618 98.6549 27.6931 98.0082 27.6931 96.968 27.6931 96.5463 27.9742 96.5463 28.649 96.5463 29.38 97.1367 29.5206 98.1488 29.6892 99.414 29.9142 100.314 30.111 100.314 31.3199 100.314 32.4445 99.5827 33.0068 98.0363 33.0068 97.1648 33.0068 96.3776 32.8381 95.6466 32.3601Z" fill="#231F20" fill-rule="nonzero" fill-opacity="1" transform="matrix(1 0 0 1.0061 261.138 237)"/><path d="M106.302 3.54247C98.2613 3.54247 97.8958 7.14116 97.8958 12.2299L97.8958 24.7129 99.8076 24.7129 99.8076 12.2299C99.8076 8.40633 99.667 5.3137 106.302 5.3137 107.005 5.3137 107.652 5.34181 108.214 5.42616L108.214 3.62681C107.623 3.57058 107.005 3.54247 106.302 3.54247Z" fill="#231F20" fill-rule="nonzero" fill-opacity="1" transform="matrix(1 0 0 1.0061 261.138 237)"/><path d="M12.3986 16.5877 12.3986 3.93607 14.3386 3.93607 14.3386 16.6159C14.3386 20.2708 14.3104 23.3353 20.9736 23.3353 27.6087 23.3353 27.4682 20.2708 27.4682 16.4191L27.4682 3.93607 29.38 3.93607 29.38 16.4191C29.38 21.5078 29.0426 25.1065 20.9736 25.1065 12.8766 25.1346 12.3986 21.5359 12.3986 16.5877Z" fill="#231F20" fill-rule="nonzero" fill-opacity="1" transform="matrix(1 0 0 1.0061 261.138 237)"/><path d="M49.5664 12.0894 49.5664 24.741 47.6265 24.741 47.6265 12.0331C47.6265 8.37821 47.6546 5.3137 40.9914 5.3137 34.3563 5.3137 34.4969 8.37821 34.4969 12.2299L34.4969 24.7129 32.5851 24.7129 32.5851 12.2299C32.5851 7.14116 32.9224 3.54247 40.9914 3.54247 49.0603 3.54247 49.5664 7.14116 49.5664 12.0894Z" fill="#231F20" fill-rule="nonzero" fill-opacity="1" transform="matrix(1 0 0 1.0061 261.138 237)"/><path d="M53.0808 3.9923 54.9363 3.9923 54.9363 24.741 53.0808 24.741 53.0808 3.9923Z" fill="#231F20" fill-rule="nonzero" fill-opacity="1" transform="matrix(1 0 0 1.0061 261.138 237)"/><path d="M58.4226 3.9923 68.1222 3.9923C72.9298 3.9923 75.1228 6.38206 75.1228 10.6274 75.1228 14.9008 72.9579 17.5155 68.0941 17.5155L60.2782 17.5155 60.2782 24.7129 58.4226 24.7129 58.4226 3.9923ZM68.1503 15.6599C71.496 15.6599 73.1828 14.0293 73.1828 10.7117 73.1828 7.42231 71.3835 5.84788 68.066 5.84788L60.2782 5.84788 60.2782 15.6599 68.1503 15.6599Z" fill="#231F20" fill-rule="nonzero" fill-opacity="1" transform="matrix(1 0 0 1.0061 261.138 237)"/><path d="M77.2876 14.2823C77.2876 8.18141 79.0307 3.45812 86.8466 3.45812 94.9437 3.45812 95.1967 8.88428 95.1686 14.6197L79.1432 14.6197C79.1713 19.6804 80.4365 23.4196 87.0153 23.4196 90.5016 23.4196 92.1041 22.4637 93.8191 21.2267L94.8875 22.6324C92.9757 24.0382 90.7546 25.1346 87.0153 25.1346 78.8058 25.1346 77.2876 20.3832 77.2876 14.2823ZM79.1994 12.8766 93.3412 12.8766C93.1444 8.74371 92.8913 5.20124 86.8466 5.20124 81.0269 5.20124 79.4243 8.3501 79.1994 12.8766Z" fill="#231F20" fill-rule="nonzero" fill-opacity="1" transform="matrix(1 0 0 1.0061 261.138 237)"/><path d="M0.730985 29.2113C8.77182 29.2113 9.13731 25.6126 9.13731 20.5238L9.13731 3.93607 7.22551 3.93607 7.22551 20.5238C7.22551 24.3474 7.36608 27.4401 0.730985 27.4401 0.477952 27.4401 0.253033 27.4401 -6.24275e-16 27.4119L-6.24275e-16 29.2113C0.224918 29.2113 0.477952 29.2113 0.730985 29.2113Z" fill="#231F20" fill-rule="nonzero" fill-opacity="1" transform="matrix(1 0 0 1.0061 261.138 237)"/><path d="M103.969 24.8254C103.238 24.8254 102.647 24.235 102.647 23.504 102.647 22.773 103.238 22.1826 103.969 22.1826 104.7 22.1826 105.29 22.773 105.29 23.504 105.29 24.235 104.7 24.8254 103.969 24.8254L103.969 24.8254ZM103.969 22.3513C103.35 22.3513 102.816 22.8573 102.816 23.504 102.816 24.1225 103.322 24.6567 103.969 24.6567 104.587 24.6567 105.121 24.1506 105.121 23.504 105.121 22.8855 104.587 22.3513 103.969 22.3513Z" fill="#231F20" fill-rule="nonzero" fill-opacity="1" transform="matrix(1 0 0 1.0061 261.138 237)"/><path d="M104.053 23.6727 103.631 23.6727 103.631 24.2631 103.434 24.2631 103.434 22.7449 104.109 22.7449C104.503 22.7449 104.643 22.9136 104.643 23.1947 104.643 23.4478 104.531 23.6164 104.278 23.6446L104.615 24.235 104.39 24.235 104.053 23.6727ZM104.109 23.4759C104.306 23.4759 104.447 23.4196 104.447 23.1947 104.447 22.9698 104.334 22.9136 104.109 22.9136L103.659 22.9136 103.659 23.4478 104.109 23.4478Z" fill="#231F20" fill-rule="nonzero" fill-opacity="1" transform="matrix(1 0 0 1.0061 261.138 237)"/><path d="M138.859 4.13288 142.233 4.13288C146.085 4.13288 147.547 5.25747 147.547 9.19354 147.547 13.0453 145.944 14.2542 142.092 14.2542L138.859 14.2542 138.859 4.13288ZM142.177 12.989C145.241 12.989 146.169 11.9769 146.169 9.19354 146.169 6.35395 145.382 5.45427 142.261 5.45427L140.237 5.45427 140.237 12.989 142.177 12.989Z" fill="#231F20" fill-rule="nonzero" fill-opacity="1" transform="matrix(1 0 0 1.0061 261.138 237)"/><path d="M149.065 6.74755 150.105 6.69132 150.246 7.61911C150.555 7.08493 151.483 6.6351 152.804 6.60698L152.804 7.95649C150.977 7.95649 150.386 8.9124 150.386 10.3181L150.386 14.3104 149.037 14.3104 149.037 6.74755Z" fill="#231F20" fill-rule="nonzero" fill-opacity="1" transform="matrix(1 0 0 1.0061 261.138 237)"/><path d="M154.154 4.13288 155.503 4.13288 155.503 5.73542 154.154 5.73542 154.154 4.13288ZM154.182 6.66321 155.503 6.66321 155.503 14.2542 154.182 14.2542 154.182 6.66321Z" fill="#231F20" fill-rule="nonzero" fill-opacity="1" transform="matrix(1 0 0 1.0061 261.138 237)"/><path d="M156.628 6.66321 158.033 6.66321 160.367 12.736 162.7 6.66321 164.078 6.66321 161.07 14.3386 159.636 14.3386 156.628 6.66321Z" fill="#231F20" fill-rule="nonzero" fill-opacity="1" transform="matrix(1 0 0 1.0061 261.138 237)"/><path d="M164.5 10.4587C164.5 8.26575 165.175 6.49452 168.211 6.49452 171.332 6.49452 171.444 8.65936 171.416 10.9648L165.793 10.9648C165.877 12.3424 166.355 13.2702 168.239 13.2702 169.476 13.2702 170.066 12.9609 170.657 12.5111L171.36 13.4389C170.544 14.0574 169.673 14.3948 168.239 14.3948 165.118 14.3948 164.5 12.6517 164.5 10.4587ZM165.793 9.78395 170.123 9.78395C170.066 8.57502 169.954 7.64723 168.155 7.64723 166.44 7.67534 165.905 8.51879 165.793 9.78395Z" fill="#231F20" fill-rule="nonzero" fill-opacity="1" transform="matrix(1 0 0 1.0061 261.138 237)"/><path d="M173.047 6.74755 174.087 6.69132 174.199 7.42231C174.565 6.94436 175.268 6.52264 177.011 6.52264 179.401 6.52264 179.738 7.7878 179.738 9.6715L179.738 14.3104 178.417 14.3104 178.417 9.89641C178.417 8.65936 178.304 7.81592 176.589 7.81592 174.705 7.81592 174.396 8.77182 174.396 10.0651L174.396 14.2823 173.047 14.2823 173.047 6.74755Z" fill="#231F20" fill-rule="nonzero" fill-opacity="1" transform="matrix(1 0 0 1.0061 261.138 237)"/><path d="M185.923 13.4389 185.67 14.3104 184.742 14.2261 184.742 3.65493 186.064 3.65493 186.064 7.42231C186.486 6.77567 187.329 6.49452 188.847 6.49452 191.406 6.49452 192.108 8.12518 192.108 10.4587 192.108 12.7922 191.378 14.3948 188.791 14.3948 187.16 14.3948 186.401 14.1136 185.923 13.4389ZM190.759 10.5149C190.759 8.82805 190.309 7.75969 188.566 7.75969 186.767 7.75969 186.092 8.49067 186.092 10.5149 186.092 12.5111 186.739 13.214 188.566 13.214 190.309 13.214 190.759 12.1456 190.759 10.5149Z" fill="#231F20" fill-rule="nonzero" fill-opacity="1" transform="matrix(1 0 0 1.0061 261.138 237)"/><path d="M193.486 16.5315 193.486 15.4631 194.077 15.4631C194.808 15.4631 195.061 15.3226 195.257 14.7603L195.482 14.1699 192.53 6.66321 193.936 6.66321 196.157 12.5954 198.378 6.66321 199.784 6.66321 196.551 14.9008C196.101 16.0817 195.539 16.5596 194.189 16.5596 194.048 16.5596 193.627 16.5596 193.486 16.5315Z" fill="#231F20" fill-rule="nonzero" fill-opacity="1" transform="matrix(1 0 0 1.0061 261.138 237)"/><path d="M138.831 20.4395 145.972 20.4395 145.972 22.0139 140.49 22.0139 140.49 24.5442 145.832 24.5442 145.832 26.1468 140.49 26.1468 140.49 29.0145 146.028 29.0145 146.028 30.5608 138.831 30.5608 138.831 20.4395Z" fill="#231F20" fill-rule="nonzero" fill-opacity="1" transform="matrix(1 0 0 1.0061 261.138 237)"/><path d="M150.358 27.7493 148.446 30.5889 146.703 30.5889 149.515 26.5966 146.956 22.9417 148.727 22.9417 150.499 25.4439 152.214 22.9417 153.929 22.9417 151.342 26.6247 154.154 30.5889 152.382 30.5889 150.358 27.7493Z" fill="#231F20" fill-rule="nonzero" fill-opacity="1" transform="matrix(1 0 0 1.0061 261.138 237)"/><path d="M155.081 23.026 156.318 22.9417 156.459 23.6727C156.881 23.1104 157.696 22.7449 159.355 22.7449 161.941 22.7449 162.616 24.4318 162.616 26.7372 162.616 29.0145 161.913 30.7014 159.27 30.7014 157.752 30.7014 157.021 30.4202 156.656 29.8579L156.656 32.81 155.053 32.81 155.053 23.026ZM161.014 26.7934C161.014 25.3033 160.62 24.2912 158.989 24.2912 157.302 24.2912 156.656 24.9941 156.656 26.7934 156.656 28.5928 157.218 29.2675 158.989 29.2675 160.62 29.2675 161.014 28.2835 161.014 26.7934Z" fill="#231F20" fill-rule="nonzero" fill-opacity="1" transform="matrix(1 0 0 1.0061 261.138 237)"/><path d="M163.6 26.7372C163.6 24.5723 164.275 22.7449 167.396 22.7449 170.629 22.7449 170.713 24.9941 170.685 27.4119L165.146 27.4119C165.231 28.6209 165.709 29.3519 167.424 29.3519 168.633 29.3519 169.251 29.0426 169.813 28.6209L170.657 29.7174C169.785 30.3921 168.858 30.7014 167.396 30.7014 164.219 30.7014 163.6 28.9301 163.6 26.7372ZM165.146 26.0062 169.167 26.0062C169.111 24.9097 168.998 24.1225 167.339 24.1225 165.765 24.1506 165.259 24.8816 165.146 26.0062Z" fill="#231F20" fill-rule="nonzero" fill-opacity="1" transform="matrix(1 0 0 1.0061 261.138 237)"/><path d="M172.063 23.026 173.3 22.9417 173.468 23.8132C173.778 23.3072 174.705 22.8855 175.999 22.8573L175.999 24.4599C174.171 24.4599 173.637 25.3314 173.637 26.6528L173.637 30.5889 172.063 30.5889 172.063 23.026Z" fill="#231F20" fill-rule="nonzero" fill-opacity="1" transform="matrix(1 0 0 1.0061 261.138 237)"/><path d="M177.151 20.327 178.754 20.327 178.754 22.0701 177.151 22.0701 177.151 20.327ZM177.151 22.9136 178.726 22.9136 178.726 30.5608 177.151 30.5608 177.151 22.9136Z" fill="#231F20" fill-rule="nonzero" fill-opacity="1" transform="matrix(1 0 0 1.0061 261.138 237)"/><path d="M180.16 26.7372C180.16 24.5723 180.834 22.7449 183.955 22.7449 187.188 22.7449 187.273 24.9941 187.245 27.4119L181.706 27.4119C181.79 28.6209 182.268 29.3519 183.983 29.3519 185.192 29.3519 185.811 29.0426 186.373 28.6209L187.217 29.7174C186.345 30.3921 185.417 30.7014 183.955 30.7014 180.778 30.7014 180.16 28.9301 180.16 26.7372ZM181.706 26.0062 185.726 26.0062C185.67 24.9097 185.558 24.1225 183.899 24.1225 182.325 24.1506 181.818 24.8816 181.706 26.0062Z" fill="#231F20" fill-rule="nonzero" fill-opacity="1" transform="matrix(1 0 0 1.0061 261.138 237)"/><path d="M188.622 23.026 189.859 22.9417 190 23.6164C190.365 23.1666 191.096 22.773 192.811 22.773 195.173 22.773 195.567 24.0663 195.567 25.95L195.567 30.5889 193.992 30.5889 193.992 26.2311C193.992 25.1065 193.88 24.3193 192.305 24.3193 190.562 24.3193 190.253 25.1628 190.253 26.3717L190.253 30.5608 188.65 30.5608 188.65 23.026Z" fill="#231F20" fill-rule="nonzero" fill-opacity="1" transform="matrix(1 0 0 1.0061 261.138 237)"/><path d="M196.832 26.7372C196.832 24.4318 197.591 22.7449 200.684 22.7449 202.061 22.7449 202.989 23.2228 203.607 23.9257L202.455 25.0222C202.117 24.6567 201.639 24.2912 200.684 24.2912 198.912 24.2912 198.434 25.2471 198.434 26.7653 198.434 28.2835 198.912 29.2675 200.684 29.2675 201.471 29.2675 201.977 29.0145 202.539 28.5084L203.607 29.5206C202.792 30.2796 202.033 30.7014 200.627 30.7014 197.619 30.7014 196.832 29.0426 196.832 26.7372Z" fill="#231F20" fill-rule="nonzero" fill-opacity="1" transform="matrix(1 0 0 1.0061 261.138 237)"/><path d="M204.226 26.7372C204.226 24.5723 204.901 22.7449 208.021 22.7449 211.255 22.7449 211.339 24.9941 211.311 27.4119L205.772 27.4119C205.857 28.6209 206.335 29.3519 208.05 29.3519 209.259 29.3519 209.877 29.0426 210.439 28.6209L211.283 29.7174C210.411 30.3921 209.483 30.7014 208.021 30.7014 204.873 30.7014 204.226 28.9301 204.226 26.7372ZM205.772 26.0062 209.793 26.0062C209.736 24.9097 209.624 24.1225 207.965 24.1225 206.391 24.1506 205.913 24.8816 205.772 26.0062Z" fill="#231F20" fill-rule="nonzero" fill-opacity="1" transform="matrix(1 0 0 1.0061 261.138 237)"/><path d="M53.0808 27.2151 53.7555 27.2151 57.1855 31.9384 57.1855 27.2151 57.7759 27.2151 57.7759 32.9506 57.2136 32.9506 53.6712 28.0867 53.6712 32.9506 53.0808 32.9506 53.0808 27.2151Z" fill="#231F20" fill-rule="nonzero" fill-opacity="1" transform="matrix(1 0 0 1.0061 261.138 237)"/><path d="M59.2098 27.2151 63.0053 27.2151 63.0053 27.8055 59.8283 27.8055 59.8283 29.6892 62.9209 29.6892 62.9209 30.2515 59.8283 30.2515 59.8283 32.3883 63.0334 32.3883 63.0334 32.9506 59.2098 32.9506 59.2098 27.2151Z" fill="#231F20" fill-rule="nonzero" fill-opacity="1" transform="matrix(1 0 0 1.0061 261.138 237)"/><path d="M66.0698 27.7774 63.9331 27.7774 63.9331 27.187 68.8532 27.187 68.8532 27.7774 66.7164 27.7774 66.7164 32.9224 66.0698 32.9224 66.0698 27.7774Z" fill="#231F20" fill-rule="nonzero" fill-opacity="1" transform="matrix(1 0 0 1.0061 261.138 237)"/><path d="M69.5842 27.2151 70.2027 27.2151 71.7209 31.9665 73.2672 27.2151 73.8014 27.2151 75.3196 31.9665 76.8378 27.2151 77.4282 27.2151 75.6007 32.9787 75.0665 32.9787 73.5202 28.1992 71.9739 32.9787 71.4116 32.9787 69.5842 27.2151Z" fill="#231F20" fill-rule="nonzero" fill-opacity="1" transform="matrix(1 0 0 1.0061 261.138 237)"/><path d="M77.9624 30.0547C77.9624 28.0024 79.0026 27.1027 80.8301 27.1027 82.6575 27.1027 83.7259 28.0024 83.7259 30.0547 83.7259 32.1071 82.6857 33.0068 80.8301 33.0068 79.0026 33.0349 77.9624 32.1071 77.9624 30.0547ZM83.1074 30.0828C83.1074 28.5365 82.3764 27.6931 80.8301 27.6931 79.2838 27.6931 78.5528 28.5365 78.5528 30.0828 78.5528 31.6292 79.2556 32.4726 80.8301 32.4726 82.4045 32.4726 83.1074 31.6292 83.1074 30.0828Z" fill="#231F20" fill-rule="nonzero" fill-opacity="1" transform="matrix(1 0 0 1.0061 261.138 237)"/><path d="M87.2684 30.5889 85.5534 30.5889 85.5534 32.9224 84.963 32.9224 84.963 27.2151 87.4371 27.2151C88.7585 27.2151 89.377 27.7493 89.377 28.8739 89.377 29.8579 88.899 30.4483 87.915 30.5608L89.2926 32.9224 88.646 32.9224 87.2684 30.5889ZM87.4371 30.0547C88.2524 30.0547 88.7585 29.8017 88.7585 28.902 88.7585 28.0024 88.2805 27.7774 87.4089 27.7774L85.5534 27.7774 85.5534 30.0547 87.4371 30.0547Z" fill="#231F20" fill-rule="nonzero" fill-opacity="1" transform="matrix(1 0 0 1.0061 261.138 237)"/><path d="M92.4134 29.886 91.2607 31.1512 91.2607 32.9506 90.6703 32.9506 90.6703 27.2151 91.2607 27.2151 91.2607 30.364 94.1565 27.2151 94.8594 27.2151 92.807 29.4643 95.1405 32.9506 94.4658 32.9506 92.4134 29.886Z" fill="#231F20" fill-rule="nonzero" fill-opacity="1" transform="matrix(1 0 0 1.0061 261.138 237)"/><path d="M95.6466 32.3601 95.9558 31.9103C96.6306 32.332 97.3054 32.5007 98.0082 32.5007 99.189 32.5007 99.7232 32.1633 99.7232 31.3761 99.7232 30.5608 99.0485 30.4483 98.0082 30.2515 96.7712 30.0266 95.9277 29.8298 95.9277 28.6771 95.9277 27.5806 96.6306 27.1308 98.0082 27.1308 98.9079 27.1308 99.5545 27.3276 100.004 27.6369L99.667 28.1429C99.2453 27.8618 98.6549 27.6931 98.0082 27.6931 96.968 27.6931 96.5463 27.9742 96.5463 28.649 96.5463 29.38 97.1367 29.5206 98.1488 29.6892 99.414 29.9142 100.314 30.111 100.314 31.3199 100.314 32.4445 99.5827 33.0068 98.0363 33.0068 97.1648 33.0068 96.3776 32.8381 95.6466 32.3601Z" fill="#231F20" fill-rule="nonzero" fill-opacity="1" transform="matrix(1 0 0 1.0061 261.138 237)"/><path d="M106.302 3.54247C98.2613 3.54247 97.8958 7.14116 97.8958 12.2299L97.8958 24.7129 99.8076 24.7129 99.8076 12.2299C99.8076 8.40633 99.667 5.3137 106.302 5.3137 107.005 5.3137 107.652 5.34181 108.214 5.42616L108.214 3.62681C107.623 3.57058 107.005 3.54247 106.302 3.54247Z" fill="#231F20" fill-rule="nonzero" fill-opacity="1" transform="matrix(1 0 0 1.0061 261.138 237)"/><path d="M12.3986 16.5877 12.3986 3.93607 14.3386 3.93607 14.3386 16.6159C14.3386 20.2708 14.3104 23.3353 20.9736 23.3353 27.6087 23.3353 27.4682 20.2708 27.4682 16.4191L27.4682 3.93607 29.38 3.93607 29.38 16.4191C29.38 21.5078 29.0426 25.1065 20.9736 25.1065 12.8766 25.1346 12.3986 21.5359 12.3986 16.5877Z" fill="#231F20" fill-rule="nonzero" fill-opacity="1" transform="matrix(1 0 0 1.0061 261.138 237)"/><path d="M49.5664 12.0894 49.5664 24.741 47.6265 24.741 47.6265 12.0331C47.6265 8.37821 47.6546 5.3137 40.9914 5.3137 34.3563 5.3137 34.4969 8.37821 34.4969 12.2299L34.4969 24.7129 32.5851 24.7129 32.5851 12.2299C32.5851 7.14116 32.9224 3.54247 40.9914 3.54247 49.0603 3.54247 49.5664 7.14116 49.5664 12.0894Z" fill="#231F20" fill-rule="nonzero" fill-opacity="1" transform="matrix(1 0 0 1.0061 261.138 237)"/><path d="M53.0808 3.9923 54.9363 3.9923 54.9363 24.741 53.0808 24.741 53.0808 3.9923Z" fill="#231F20" fill-rule="nonzero" fill-opacity="1" transform="matrix(1 0 0 1.0061 261.138 237)"/><path d="M58.4226 3.9923 68.1222 3.9923C72.9298 3.9923 75.1228 6.38206 75.1228 10.6274 75.1228 14.9008 72.9579 17.5155 68.0941 17.5155L60.2782 17.5155 60.2782 24.7129 58.4226 24.7129 58.4226 3.9923ZM68.1503 15.6599C71.496 15.6599 73.1828 14.0293 73.1828 10.7117 73.1828 7.42231 71.3835 5.84788 68.066 5.84788L60.2782 5.84788 60.2782 15.6599 68.1503 15.6599Z" fill="#231F20" fill-rule="nonzero" fill-opacity="1" transform="matrix(1 0 0 1.0061 261.138 237)"/><path d="M77.2876 14.2823C77.2876 8.18141 79.0307 3.45812 86.8466 3.45812 94.9437 3.45812 95.1967 8.88428 95.1686 14.6197L79.1432 14.6197C79.1713 19.6804 80.4365 23.4196 87.0153 23.4196 90.5016 23.4196 92.1041 22.4637 93.8191 21.2267L94.8875 22.6324C92.9757 24.0382 90.7546 25.1346 87.0153 25.1346 78.8058 25.1346 77.2876 20.3832 77.2876 14.2823ZM79.1994 12.8766 93.3412 12.8766C93.1444 8.74371 92.8913 5.20124 86.8466 5.20124 81.0269 5.20124 79.4243 8.3501 79.1994 12.8766Z" fill="#231F20" fill-rule="nonzero" fill-opacity="1" transform="matrix(1 0 0 1.0061 261.138 237)"/><path d="M0.730985 29.2113C8.77182 29.2113 9.13731 25.6126 9.13731 20.5238L9.13731 3.93607 7.22551 3.93607 7.22551 20.5238C7.22551 24.3474 7.36608 27.4401 0.730985 27.4401 0.477952 27.4401 0.253033 27.4401 -6.24275e-16 27.4119L-6.24275e-16 29.2113C0.224918 29.2113 0.477952 29.2113 0.730985 29.2113Z" fill="#231F20" fill-rule="nonzero" fill-opacity="1" transform="matrix(1 0 0 1.0061 261.138 237)"/><path d="M103.969 24.8254C103.238 24.8254 102.647 24.235 102.647 23.504 102.647 22.773 103.238 22.1826 103.969 22.1826 104.7 22.1826 105.29 22.773 105.29 23.504 105.29 24.235 104.7 24.8254 103.969 24.8254L103.969 24.8254ZM103.969 22.3513C103.35 22.3513 102.816 22.8573 102.816 23.504 102.816 24.1225 103.322 24.6567 103.969 24.6567 104.587 24.6567 105.121 24.1506 105.121 23.504 105.121 22.8855 104.587 22.3513 103.969 22.3513Z" fill="#231F20" fill-rule="nonzero" fill-opacity="1" transform="matrix(1 0 0 1.0061 261.138 237)"/><path d="M104.053 23.6727 103.631 23.6727 103.631 24.2631 103.434 24.2631 103.434 22.7449 104.109 22.7449C104.503 22.7449 104.643 22.9136 104.643 23.1947 104.643 23.4478 104.531 23.6164 104.278 23.6446L104.615 24.235 104.39 24.235 104.053 23.6727ZM104.109 23.4759C104.306 23.4759 104.447 23.4196 104.447 23.1947 104.447 22.9698 104.334 22.9136 104.109 22.9136L103.659 22.9136 103.659 23.4478 104.109 23.4478Z" fill="#231F20" fill-rule="nonzero" fill-opacity="1" transform="matrix(1 0 0 1.0061 261.138 237)"/><path d="M213.167 22.9698 212.632 22.9698 212.632 22.7449 213.982 22.7449 213.982 22.9698 213.448 22.9698 213.448 24.235 213.195 24.235 213.195 22.9698Z" fill="#231F20" fill-rule="nonzero" fill-opacity="1" transform="matrix(1 0 0 1.0061 261.138 237)"/><path d="M214.151 22.7449 214.46 22.7449 214.938 23.8976 215.416 22.7449 215.725 22.7449 215.725 24.2631 215.472 24.2631 215.472 23.1666 215.022 24.2631 214.825 24.2631 214.375 23.1666 214.375 24.2631 214.151 24.2631 214.151 22.7449Z" fill="#231F20" fill-rule="nonzero" fill-opacity="1" transform="matrix(1 0 0 1.0061 261.138 237)"/></g></g></g></svg>