<?xml version="1.0" encoding="utf-8"?>
<svg viewBox="0 0 500 500" xmlns="http://www.w3.org/2000/svg">
  <defs>
    <clipPath id="clip1">
      <rect x="552" y="252" width="95" height="52"/>
    </clipPath>
    <clipPath id="clip2">
      <rect x="552" y="252" width="95" height="52"/>
    </clipPath>
    <clipPath id="clip3">
      <rect x="552" y="252" width="95" height="52"/>
    </clipPath>
    <clipPath id="clip0">
      <rect x="242" y="212" width="87" height="93"/>
    </clipPath>
    <clipPath id="clip-1">
      <rect x="243" y="213" width="86" height="92"/>
    </clipPath>
    <clipPath id="clip-2">
      <rect x="243" y="213" width="86" height="92"/>
    </clipPath>
    <clipPath id="clip-3">
      <rect x="243" y="213" width="86" height="92"/>
    </clipPath>
    <clipPath id="clip-4">
      <rect x="552" y="252" width="95" height="52"/>
    </clipPath>
    <clipPath id="clip-5">
      <rect x="552" y="252" width="95" height="52"/>
    </clipPath>
    <clipPath id="clip-6">
      <rect x="552" y="252" width="95" height="52"/>
    </clipPath>
    <clipPath id="clip-7">
      <rect x="552" y="252" width="95" height="52"/>
    </clipPath>
    <clipPath id="clip-8">
      <rect x="552" y="252" width="95" height="52"/>
    </clipPath>
    <clipPath id="clip-9">
      <rect x="552" y="252" width="95" height="52"/>
    </clipPath>
    <clipPath id="clip-10">
      <rect x="552" y="252" width="95" height="52"/>
    </clipPath>
    <clipPath id="clip-11">
      <rect x="552" y="252" width="95" height="52"/>
    </clipPath>
    <clipPath id="clip-12">
      <rect x="552" y="252" width="95" height="52"/>
    </clipPath>
  </defs>
  <path d="M 500.5 -0.634 L 500.5 500.366 L -0.5 500.366 L -0.5 -0.634 Z M 0.5 499.366 L 499.5 499.366 L 499.5 0.366 L 0.5 0.366 Z" style=""/>
  <g transform="matrix(1.003352, 0, 0, 1.003352, -33.174568, -74.503944)" style="">
    <g clip-path="url(#clip1)" transform="matrix(1, 0, 0, 1, -489.671265, -120.799492)">
      <g clip-path="url(#clip2)">
        <g clip-path="url(#clip3)">
          <path d="M608.877 263.224C608.603 263.224 608.381 263.002 608.381 262.729L608.381 256.834 614.226 256.834C614.5 256.834 614.722 257.056 614.722 257.33 614.722 257.603 614.5 257.825 614.226 257.825L609.372 257.825 609.372 262.778C609.346 263.033 609.132 263.226 608.877 263.224Z" fill="#414141" fill-rule="nonzero" fill-opacity="1" style=""/>
          <path d="M618.04 263.224C617.767 263.224 617.545 263.002 617.545 262.729L617.545 256.834 623.39 256.834C623.663 256.834 623.885 257.056 623.885 257.33 623.885 257.603 623.663 257.825 623.39 257.825L618.585 257.825 618.585 262.778C618.559 263.051 618.318 263.251 618.045 263.225 618.044 263.225 618.042 263.224 618.04 263.224Z" fill="#414141" fill-rule="nonzero" fill-opacity="1" style=""/>
          <path d="M599.763 272.269C599.489 272.269 599.267 272.047 599.267 271.774L599.267 265.869 605.112 265.869C605.386 265.869 605.607 266.091 605.607 266.365 605.607 266.638 605.386 266.86 605.112 266.86L600.258 266.86 600.258 271.813C600.233 272.069 600.02 272.265 599.763 272.269Z" fill="#414141" fill-rule="nonzero" fill-opacity="1" style=""/>
          <path d="M618.04 272.269C617.801 272.246 617.613 272.053 617.595 271.813L617.595 265.869 623.439 265.869C623.713 265.869 623.935 266.091 623.935 266.365 623.935 266.638 623.713 266.86 623.439 266.86L618.585 266.86 618.585 271.813C618.559 272.089 618.316 272.292 618.04 272.269Z" fill="#414141" fill-rule="nonzero" fill-opacity="1" style=""/>
          <path d="M599.763 281.304C599.489 281.304 599.267 281.082 599.267 280.809L599.267 274.914 605.112 274.914C605.386 274.914 605.607 275.136 605.607 275.409 605.607 275.683 605.386 275.905 605.112 275.905L600.258 275.905 600.258 280.809C600.258 281.082 600.036 281.304 599.763 281.304Z" fill="#414141" fill-rule="nonzero" fill-opacity="1" style=""/>
          <path d="M608.877 281.304C608.603 281.304 608.381 281.082 608.381 280.809L608.381 274.914 614.226 274.914C614.5 274.914 614.722 275.136 614.722 275.409 614.722 275.683 614.5 275.905 614.226 275.905L609.372 275.905 609.372 280.809C609.372 281.082 609.15 281.304 608.877 281.304Z" fill="#414141" fill-rule="nonzero" fill-opacity="1" style=""/>
          <path d="M618.04 281.304C617.767 281.304 617.545 281.082 617.545 280.809L617.545 274.914 623.39 274.914C623.663 274.914 623.885 275.136 623.885 275.409 623.885 275.683 623.663 275.905 623.39 275.905L618.585 275.905 618.585 280.809C618.587 281.082 618.366 281.305 618.092 281.306 618.075 281.306 618.058 281.306 618.04 281.304Z" fill="#414141" fill-rule="nonzero" fill-opacity="1" style=""/>
          <path d="M627.204 281.304C626.93 281.304 626.709 281.082 626.709 280.809L626.709 274.914 632.554 274.914C632.827 274.914 633.049 275.136 633.049 275.409 633.049 275.683 632.827 275.905 632.554 275.905L627.699 275.905 627.699 280.809C627.699 281.082 627.477 281.304 627.204 281.304Z" fill="#414141" fill-rule="nonzero" fill-opacity="1" style=""/>
          <path d="M599.584 290.349C599.311 290.349 599.089 290.127 599.089 289.853L599.089 283.909 604.934 283.909C605.207 283.909 605.429 284.131 605.429 284.405 605.429 284.678 605.207 284.9 604.934 284.9L600.08 284.9 600.08 289.853C600.08 290.127 599.858 290.349 599.584 290.349Z" fill="#414141" fill-rule="nonzero" fill-opacity="1" style=""/>
          <path d="M627.204 290.349C626.93 290.349 626.709 290.127 626.709 289.853L626.709 283.909 632.554 283.909C632.827 283.909 633.049 284.131 633.049 284.405 633.049 284.678 632.827 284.9 632.554 284.9L627.699 284.9 627.699 289.853C627.694 290.125 627.475 290.343 627.204 290.349Z" fill="#414141" fill-rule="nonzero" fill-opacity="1" style=""/>
          <path d="M590.549 272.269C590.276 272.269 590.054 272.047 590.054 271.774L590.054 265.869 595.899 265.869C596.172 265.869 596.394 266.091 596.394 266.365 596.394 266.638 596.172 266.86 595.899 266.86L591.045 266.86 591.045 271.813C591.02 272.069 590.806 272.265 590.549 272.269Z" fill="#414141" fill-rule="nonzero" fill-opacity="1" style=""/>
          <path d="M590.549 281.304C590.276 281.304 590.054 281.082 590.054 280.809L590.054 274.914 595.899 274.914C596.172 274.914 596.394 275.136 596.394 275.409 596.394 275.683 596.172 275.905 595.899 275.905L591.045 275.905 591.045 280.809C591.045 281.082 590.823 281.304 590.549 281.304Z" fill="#414141" fill-rule="nonzero" fill-opacity="1" style=""/>
          <path d="M563.108 290.349C562.834 290.349 562.613 290.127 562.613 289.853L562.613 283.909 568.458 283.909C568.731 283.909 568.953 284.131 568.953 284.405 568.953 284.678 568.731 284.9 568.458 284.9L563.603 284.9 563.603 289.853C563.598 290.125 563.379 290.343 563.108 290.349Z" fill="#414141" fill-rule="nonzero" fill-opacity="1" style=""/>
          <path d="M572.222 290.349C571.949 290.349 571.727 290.127 571.727 289.853L571.727 283.909 577.572 283.909C577.845 283.909 578.067 284.131 578.067 284.405 578.067 284.678 577.845 284.9 577.572 284.9L572.717 284.9 572.717 289.853C572.712 290.125 572.493 290.343 572.222 290.349Z" fill="#414141" fill-rule="nonzero" fill-opacity="1" style=""/>
          <path d="M581.386 290.349C581.112 290.349 580.89 290.127 580.89 289.853L580.89 283.909 586.735 283.909C587.009 283.909 587.231 284.131 587.231 284.405 587.231 284.678 587.009 284.9 586.735 284.9L581.931 284.9 581.931 289.853C581.926 290.132 581.696 290.355 581.417 290.35 581.407 290.35 581.396 290.349 581.386 290.349Z" fill="#414141" fill-rule="nonzero" fill-opacity="1" style=""/>
          <path d="M563.108 299.384C562.834 299.384 562.613 299.162 562.613 298.888L562.613 292.994 568.458 292.994C568.731 292.994 568.953 293.216 568.953 293.489 568.953 293.763 568.731 293.984 568.458 293.984L563.603 293.984 563.603 298.888C563.603 299.162 563.381 299.384 563.108 299.384Z" fill="#414141" fill-rule="nonzero" fill-opacity="1" style=""/>
          <path d="M572.222 299.384C571.949 299.384 571.727 299.162 571.727 298.888L571.727 292.994 577.572 292.994C577.845 292.994 578.067 293.216 578.067 293.489 578.067 293.763 577.845 293.984 577.572 293.984L572.717 293.984 572.717 298.888C572.717 299.162 572.496 299.384 572.222 299.384Z" fill="#414141" fill-rule="nonzero" fill-opacity="1" style=""/>
          <path d="M627.204 299.384C626.93 299.384 626.709 299.162 626.709 298.888L626.709 292.994 632.554 292.994C632.827 292.994 633.049 293.216 633.049 293.489 633.049 293.763 632.827 293.984 632.554 293.984L627.699 293.984 627.699 298.888C627.699 299.162 627.477 299.384 627.204 299.384Z" fill="#414141" fill-rule="nonzero" fill-opacity="1" style=""/>
          <path d="M646.046 302.524 638.121 302.524 638.121 259.45C638.127 259.049 637.809 258.718 637.408 258.707L629.978 258.707 629.978 252.763C629.983 252.347 629.651 252.006 629.235 252 629.235 252 629.235 252 629.235 252L593.303 252C592.893 252 592.56 252.333 592.56 252.743L592.56 258.687 584.744 258.687C584.339 258.681 584.007 259.005 584.001 259.41 584.001 259.417 584.001 259.423 584.001 259.43L584.001 279.679 558.432 279.679C558.027 279.674 557.695 279.997 557.689 280.402 557.689 280.409 557.689 280.416 557.689 280.422L557.689 302.524 552.954 302.524C552.543 302.524 552.211 302.857 552.211 303.267 552.211 303.677 552.543 304.01 552.954 304.01L604.954 304.01C605.364 304.01 605.697 303.677 605.697 303.267L605.697 292.776 616.842 292.776 616.842 303.257C616.847 303.665 617.176 303.995 617.585 304L646.046 304C646.457 304 646.789 303.667 646.789 303.257 646.789 302.847 646.457 302.514 646.046 302.514ZM635.674 302.524 618.328 302.524 618.328 292.033C618.328 291.622 617.995 291.29 617.585 291.29L604.954 291.29C604.545 291.295 604.216 291.625 604.211 292.033L604.211 302.524 559.145 302.524 559.145 281.165 584.744 281.165C585.152 281.16 585.482 280.83 585.487 280.422L585.487 260.193 593.303 260.193C593.712 260.187 594.041 259.858 594.046 259.45L594.046 253.506 628.492 253.506 628.492 259.45C628.492 259.86 628.825 260.193 629.235 260.193L636.635 260.193 636.635 302.524Z" fill="#414141" fill-rule="nonzero" fill-opacity="1" style=""/>
        </g>
      </g>
    </g>
  </g>
  <line style="fill: rgb(216, 216, 216); stroke: rgb(0, 184, 18); stroke-width: 2px;" x1="77.673" y1="109.908" x2="215.1" y2="240.254" transform="matrix(-1, 0, 0, -1, 292.772995, 350.162003)"/>
  <line style="fill: rgb(216, 216, 216); stroke: rgb(0, 184, 18); stroke-width: 2px;" x1="222.381" y1="282.23" x2="114.885" y2="396.165"/>
  <g clip-path="url(#clip0)" transform="matrix(1, 0, 0, 1, -44.350063, -22.673708)">
    <g clip-path="url(#clip-1)">
      <g clip-path="url(#clip-2)">
        <g clip-path="url(#clip-3)">
          <path d="M328.252 303.367 322.573 303.367 322.573 270.107C322.573 269.693 322.238 269.358 321.825 269.358L302.146 269.358 302.146 262.692C302.146 262.279 301.811 261.944 301.398 261.944L293.474 261.944 293.474 224.871C293.476 224.625 293.357 224.394 293.155 224.253L277.408 213.276C277.153 213.097 276.814 213.097 276.56 213.276L260.723 224.253C260.521 224.394 260.402 224.625 260.404 224.871L260.404 261.944 252.6 261.944C252.192 261.944 251.861 262.274 251.861 262.682 251.861 262.686 251.861 262.689 251.861 262.692L251.861 303.367 243.748 303.367C243.335 303.367 243 303.702 243 304.116 243 304.529 243.335 304.864 243.748 304.864L271.311 304.864C271.722 304.859 272.054 304.527 272.059 304.116L272.059 293.139 281.41 293.139 281.41 304.116C281.415 304.527 281.747 304.859 282.158 304.864L328.252 304.864C328.665 304.864 329 304.529 329 304.116 329 303.702 328.665 303.367 328.252 303.367ZM318.272 303.367 282.916 303.367 282.916 292.39C282.916 291.977 282.581 291.642 282.168 291.642L271.311 291.642C270.897 291.642 270.562 291.977 270.562 292.39L270.562 303.367 253.358 303.367 253.358 263.451 261.152 263.451C261.563 263.445 261.895 263.113 261.9 262.702L261.9 225.261 276.979 214.793 291.948 225.261 291.948 262.692C291.948 263.106 292.283 263.441 292.696 263.441L300.619 263.441 300.619 270.107C300.614 270.515 300.94 270.85 301.348 270.855 301.354 270.855 301.361 270.855 301.368 270.855L321.077 270.855 321.077 303.367Z" fill="#414141" fill-rule="nonzero" fill-opacity="1"/>
          <path d="M294.193 281.313C293.917 281.313 293.694 281.09 293.694 280.814L293.694 274.887 299.582 274.887C299.857 274.887 300.081 275.11 300.081 275.386 300.081 275.661 299.857 275.885 299.582 275.885L294.692 275.885 294.692 280.814C294.692 281.09 294.468 281.313 294.193 281.313Z" fill="#414141" fill-rule="nonzero" fill-opacity="1"/>
          <path d="M303.424 281.313C303.148 281.313 302.925 281.09 302.925 280.814L302.925 274.887 308.862 274.887C309.138 274.887 309.361 275.11 309.361 275.386 309.361 275.661 309.138 275.885 308.862 275.885L303.972 275.885 303.972 280.814C303.974 281.09 303.752 281.314 303.476 281.316 303.458 281.316 303.441 281.315 303.424 281.313Z" fill="#414141" fill-rule="nonzero" fill-opacity="1"/>
          <path d="M312.654 281.313C312.379 281.313 312.155 281.09 312.155 280.814L312.155 274.887 318.043 274.887C318.318 274.887 318.542 275.11 318.542 275.386 318.542 275.661 318.318 275.885 318.043 275.885L313.153 275.885 313.153 280.814C313.153 281.09 312.93 281.313 312.654 281.313Z" fill="#414141" fill-rule="nonzero" fill-opacity="1"/>
          <path d="M303.424 290.424C303.148 290.424 302.925 290.201 302.925 289.925L302.925 283.988 308.862 283.988C309.138 283.988 309.361 284.211 309.361 284.487 309.361 284.762 309.138 284.986 308.862 284.986L303.972 284.986 303.972 289.975C303.946 290.25 303.703 290.451 303.429 290.425 303.427 290.425 303.425 290.424 303.424 290.424Z" fill="#414141" fill-rule="nonzero" fill-opacity="1"/>
          <path d="M312.654 290.424C312.379 290.424 312.155 290.201 312.155 289.925L312.155 283.988 318.043 283.988C318.318 283.988 318.542 284.211 318.542 284.487 318.542 284.762 318.318 284.986 318.043 284.986L313.153 284.986 313.153 289.975C313.127 290.231 312.911 290.426 312.654 290.424Z" fill="#414141" fill-rule="nonzero" fill-opacity="1"/>
          <path d="M303.424 299.525C303.148 299.525 302.925 299.302 302.925 299.026L302.925 293.099 308.862 293.099C309.138 293.099 309.361 293.322 309.361 293.598 309.361 293.873 309.138 294.097 308.862 294.097L303.972 294.097 303.972 299.026C303.974 299.302 303.752 299.526 303.476 299.528 303.458 299.528 303.441 299.527 303.424 299.525Z" fill="#414141" fill-rule="nonzero" fill-opacity="1"/>
          <path d="M256.771 279.816C256.496 279.816 256.272 279.593 256.272 279.317L256.272 273.39 262.16 273.39C262.435 273.39 262.659 273.613 262.659 273.889 262.659 274.164 262.435 274.388 262.16 274.388L257.27 274.388 257.27 279.317C257.27 279.593 257.047 279.816 256.771 279.816Z" fill="#414141" fill-rule="nonzero" fill-opacity="1"/>
          <path d="M266.002 279.816C265.726 279.816 265.503 279.593 265.503 279.317L265.503 273.39 271.391 273.39C271.666 273.39 271.89 273.613 271.89 273.889 271.89 274.164 271.666 274.388 271.391 274.388L266.501 274.388 266.501 279.317C266.501 279.593 266.277 279.816 266.002 279.816Z" fill="#414141" fill-rule="nonzero" fill-opacity="1"/>
          <path d="M256.771 288.977C256.496 288.977 256.272 288.754 256.272 288.478L256.272 282.491 262.16 282.491C262.435 282.491 262.659 282.714 262.659 282.99 262.659 283.265 262.435 283.489 262.16 283.489L257.27 283.489 257.27 288.478C257.27 288.754 257.047 288.977 256.771 288.977Z" fill="#414141" fill-rule="nonzero" fill-opacity="1"/>
          <path d="M256.771 298.028C256.496 298.028 256.272 297.805 256.272 297.529L256.272 291.602 262.16 291.602C262.435 291.602 262.659 291.825 262.659 292.101 262.659 292.376 262.435 292.6 262.16 292.6L257.27 292.6 257.27 297.529C257.27 297.805 257.047 298.028 256.771 298.028Z" fill="#414141" fill-rule="nonzero" fill-opacity="1"/>
          <path d="M265.583 234.162C265.307 234.162 265.084 233.939 265.084 233.663L265.084 227.735 270.942 227.735C271.217 227.735 271.44 227.959 271.44 228.234 271.435 228.508 271.215 228.728 270.942 228.733L266.082 228.733 266.082 233.663C266.082 233.939 265.858 234.162 265.583 234.162Z" fill="#414141" fill-rule="nonzero" fill-opacity="1"/>
          <path d="M274.813 234.162C274.538 234.162 274.314 233.939 274.314 233.663L274.314 227.735 280.212 227.735C280.488 227.735 280.711 227.959 280.711 228.234 280.706 228.508 280.485 228.728 280.212 228.733L275.312 228.733 275.312 233.663C275.312 233.939 275.089 234.162 274.813 234.162Z" fill="#414141" fill-rule="nonzero" fill-opacity="1"/>
          <path d="M284.044 234.162C283.769 234.162 283.545 233.939 283.545 233.663L283.545 227.735 289.443 227.735C289.718 227.735 289.942 227.959 289.942 228.234 289.936 228.508 289.716 228.728 289.443 228.733L284.543 228.733 284.543 233.663C284.543 233.939 284.32 234.162 284.044 234.162Z" fill="#414141" fill-rule="nonzero" fill-opacity="1"/>
          <path d="M265.583 243.273C265.307 243.273 265.084 243.049 265.084 242.774L265.084 236.836 270.942 236.836C271.215 236.842 271.435 237.062 271.44 237.335 271.44 237.611 271.217 237.834 270.942 237.834L266.082 237.834 266.082 242.774C266.082 243.049 265.858 243.273 265.583 243.273Z" fill="#414141" fill-rule="nonzero" fill-opacity="1"/>
          <path d="M284.044 243.273C283.769 243.273 283.545 243.049 283.545 242.774L283.545 236.836 289.443 236.836C289.716 236.842 289.936 237.062 289.942 237.335 289.942 237.611 289.718 237.834 289.443 237.834L284.543 237.834 284.543 242.774C284.543 243.049 284.32 243.273 284.044 243.273Z" fill="#414141" fill-rule="nonzero" fill-opacity="1"/>
          <path d="M265.583 252.374C265.307 252.374 265.084 252.15 265.084 251.875L265.084 245.947 270.942 245.947C271.217 245.947 271.44 246.171 271.44 246.446 271.435 246.72 271.215 246.94 270.942 246.945L266.082 246.945 266.082 251.875C266.082 252.15 265.858 252.374 265.583 252.374Z" fill="#414141" fill-rule="nonzero" fill-opacity="1"/>
          <path d="M274.813 252.374C274.538 252.374 274.314 252.15 274.314 251.875L274.314 245.947 280.212 245.947C280.488 245.947 280.711 246.171 280.711 246.446 280.706 246.72 280.485 246.94 280.212 246.945L275.312 246.945 275.312 251.875C275.312 252.15 275.089 252.374 274.813 252.374Z" fill="#414141" fill-rule="nonzero" fill-opacity="1"/>
          <path d="M284.044 252.374C283.769 252.374 283.545 252.15 283.545 251.875L283.545 245.947 289.443 245.947C289.718 245.947 289.942 246.171 289.942 246.446 289.936 246.72 289.716 246.94 289.443 246.945L284.543 246.945 284.543 251.875C284.543 252.15 284.32 252.374 284.044 252.374Z" fill="#414141" fill-rule="nonzero" fill-opacity="1"/>
          <path d="M265.583 261.485C265.307 261.485 265.084 261.261 265.084 260.986L265.084 255.048 270.942 255.048C271.215 255.054 271.435 255.274 271.44 255.547 271.44 255.823 271.217 256.046 270.942 256.046L266.082 256.046 266.082 261.036C266.056 261.292 265.84 261.486 265.583 261.485Z" fill="#414141" fill-rule="nonzero" fill-opacity="1"/>
          <path d="M274.813 261.485C274.538 261.485 274.314 261.261 274.314 260.986L274.314 255.048 280.212 255.048C280.485 255.054 280.706 255.274 280.711 255.547 280.711 255.823 280.488 256.046 280.212 256.046L275.312 256.046 275.312 261.036C275.287 261.292 275.071 261.486 274.813 261.485Z" fill="#414141" fill-rule="nonzero" fill-opacity="1"/>
          <path d="M274.813 270.586C274.538 270.586 274.314 270.362 274.314 270.087L274.314 264.159 280.212 264.159C280.488 264.159 280.711 264.383 280.711 264.658 280.706 264.931 280.485 265.152 280.212 265.157L275.312 265.157 275.312 270.087C275.312 270.362 275.089 270.586 274.813 270.586Z" fill="#414141" fill-rule="nonzero" fill-opacity="1"/>
          <path d="M284.044 270.586C283.769 270.586 283.545 270.362 283.545 270.087L283.545 264.159 289.443 264.159C289.718 264.159 289.942 264.383 289.942 264.658 289.936 264.931 289.716 265.152 289.443 265.157L284.543 265.157 284.543 270.087C284.543 270.362 284.32 270.586 284.044 270.586Z" fill="#414141" fill-rule="nonzero" fill-opacity="1"/>
        </g>
      </g>
    </g>
  </g>
  <g transform="matrix(1.003352, 0, 0, 1.003352, 298.010864, 234.039185)" style="">
    <g clip-path="url(#clip-4)" transform="matrix(1, 0, 0, 1, -489.671265, -120.799492)">
      <g clip-path="url(#clip-5)">
        <g clip-path="url(#clip-6)">
          <path d="M608.877 263.224C608.603 263.224 608.381 263.002 608.381 262.729L608.381 256.834 614.226 256.834C614.5 256.834 614.722 257.056 614.722 257.33 614.722 257.603 614.5 257.825 614.226 257.825L609.372 257.825 609.372 262.778C609.346 263.033 609.132 263.226 608.877 263.224Z" fill="#414141" fill-rule="nonzero" fill-opacity="1" style=""/>
          <path d="M618.04 263.224C617.767 263.224 617.545 263.002 617.545 262.729L617.545 256.834 623.39 256.834C623.663 256.834 623.885 257.056 623.885 257.33 623.885 257.603 623.663 257.825 623.39 257.825L618.585 257.825 618.585 262.778C618.559 263.051 618.318 263.251 618.045 263.225 618.044 263.225 618.042 263.224 618.04 263.224Z" fill="#414141" fill-rule="nonzero" fill-opacity="1" style=""/>
          <path d="M599.763 272.269C599.489 272.269 599.267 272.047 599.267 271.774L599.267 265.869 605.112 265.869C605.386 265.869 605.607 266.091 605.607 266.365 605.607 266.638 605.386 266.86 605.112 266.86L600.258 266.86 600.258 271.813C600.233 272.069 600.02 272.265 599.763 272.269Z" fill="#414141" fill-rule="nonzero" fill-opacity="1" style=""/>
          <path d="M618.04 272.269C617.801 272.246 617.613 272.053 617.595 271.813L617.595 265.869 623.439 265.869C623.713 265.869 623.935 266.091 623.935 266.365 623.935 266.638 623.713 266.86 623.439 266.86L618.585 266.86 618.585 271.813C618.559 272.089 618.316 272.292 618.04 272.269Z" fill="#414141" fill-rule="nonzero" fill-opacity="1" style=""/>
          <path d="M599.763 281.304C599.489 281.304 599.267 281.082 599.267 280.809L599.267 274.914 605.112 274.914C605.386 274.914 605.607 275.136 605.607 275.409 605.607 275.683 605.386 275.905 605.112 275.905L600.258 275.905 600.258 280.809C600.258 281.082 600.036 281.304 599.763 281.304Z" fill="#414141" fill-rule="nonzero" fill-opacity="1" style=""/>
          <path d="M608.877 281.304C608.603 281.304 608.381 281.082 608.381 280.809L608.381 274.914 614.226 274.914C614.5 274.914 614.722 275.136 614.722 275.409 614.722 275.683 614.5 275.905 614.226 275.905L609.372 275.905 609.372 280.809C609.372 281.082 609.15 281.304 608.877 281.304Z" fill="#414141" fill-rule="nonzero" fill-opacity="1" style=""/>
          <path d="M618.04 281.304C617.767 281.304 617.545 281.082 617.545 280.809L617.545 274.914 623.39 274.914C623.663 274.914 623.885 275.136 623.885 275.409 623.885 275.683 623.663 275.905 623.39 275.905L618.585 275.905 618.585 280.809C618.587 281.082 618.366 281.305 618.092 281.306 618.075 281.306 618.058 281.306 618.04 281.304Z" fill="#414141" fill-rule="nonzero" fill-opacity="1" style=""/>
          <path d="M627.204 281.304C626.93 281.304 626.709 281.082 626.709 280.809L626.709 274.914 632.554 274.914C632.827 274.914 633.049 275.136 633.049 275.409 633.049 275.683 632.827 275.905 632.554 275.905L627.699 275.905 627.699 280.809C627.699 281.082 627.477 281.304 627.204 281.304Z" fill="#414141" fill-rule="nonzero" fill-opacity="1" style=""/>
          <path d="M599.584 290.349C599.311 290.349 599.089 290.127 599.089 289.853L599.089 283.909 604.934 283.909C605.207 283.909 605.429 284.131 605.429 284.405 605.429 284.678 605.207 284.9 604.934 284.9L600.08 284.9 600.08 289.853C600.08 290.127 599.858 290.349 599.584 290.349Z" fill="#414141" fill-rule="nonzero" fill-opacity="1" style=""/>
          <path d="M627.204 290.349C626.93 290.349 626.709 290.127 626.709 289.853L626.709 283.909 632.554 283.909C632.827 283.909 633.049 284.131 633.049 284.405 633.049 284.678 632.827 284.9 632.554 284.9L627.699 284.9 627.699 289.853C627.694 290.125 627.475 290.343 627.204 290.349Z" fill="#414141" fill-rule="nonzero" fill-opacity="1" style=""/>
          <path d="M590.549 272.269C590.276 272.269 590.054 272.047 590.054 271.774L590.054 265.869 595.899 265.869C596.172 265.869 596.394 266.091 596.394 266.365 596.394 266.638 596.172 266.86 595.899 266.86L591.045 266.86 591.045 271.813C591.02 272.069 590.806 272.265 590.549 272.269Z" fill="#414141" fill-rule="nonzero" fill-opacity="1" style=""/>
          <path d="M590.549 281.304C590.276 281.304 590.054 281.082 590.054 280.809L590.054 274.914 595.899 274.914C596.172 274.914 596.394 275.136 596.394 275.409 596.394 275.683 596.172 275.905 595.899 275.905L591.045 275.905 591.045 280.809C591.045 281.082 590.823 281.304 590.549 281.304Z" fill="#414141" fill-rule="nonzero" fill-opacity="1" style=""/>
          <path d="M563.108 290.349C562.834 290.349 562.613 290.127 562.613 289.853L562.613 283.909 568.458 283.909C568.731 283.909 568.953 284.131 568.953 284.405 568.953 284.678 568.731 284.9 568.458 284.9L563.603 284.9 563.603 289.853C563.598 290.125 563.379 290.343 563.108 290.349Z" fill="#414141" fill-rule="nonzero" fill-opacity="1" style=""/>
          <path d="M572.222 290.349C571.949 290.349 571.727 290.127 571.727 289.853L571.727 283.909 577.572 283.909C577.845 283.909 578.067 284.131 578.067 284.405 578.067 284.678 577.845 284.9 577.572 284.9L572.717 284.9 572.717 289.853C572.712 290.125 572.493 290.343 572.222 290.349Z" fill="#414141" fill-rule="nonzero" fill-opacity="1" style=""/>
          <path d="M581.386 290.349C581.112 290.349 580.89 290.127 580.89 289.853L580.89 283.909 586.735 283.909C587.009 283.909 587.231 284.131 587.231 284.405 587.231 284.678 587.009 284.9 586.735 284.9L581.931 284.9 581.931 289.853C581.926 290.132 581.696 290.355 581.417 290.35 581.407 290.35 581.396 290.349 581.386 290.349Z" fill="#414141" fill-rule="nonzero" fill-opacity="1" style=""/>
          <path d="M563.108 299.384C562.834 299.384 562.613 299.162 562.613 298.888L562.613 292.994 568.458 292.994C568.731 292.994 568.953 293.216 568.953 293.489 568.953 293.763 568.731 293.984 568.458 293.984L563.603 293.984 563.603 298.888C563.603 299.162 563.381 299.384 563.108 299.384Z" fill="#414141" fill-rule="nonzero" fill-opacity="1" style=""/>
          <path d="M572.222 299.384C571.949 299.384 571.727 299.162 571.727 298.888L571.727 292.994 577.572 292.994C577.845 292.994 578.067 293.216 578.067 293.489 578.067 293.763 577.845 293.984 577.572 293.984L572.717 293.984 572.717 298.888C572.717 299.162 572.496 299.384 572.222 299.384Z" fill="#414141" fill-rule="nonzero" fill-opacity="1" style=""/>
          <path d="M627.204 299.384C626.93 299.384 626.709 299.162 626.709 298.888L626.709 292.994 632.554 292.994C632.827 292.994 633.049 293.216 633.049 293.489 633.049 293.763 632.827 293.984 632.554 293.984L627.699 293.984 627.699 298.888C627.699 299.162 627.477 299.384 627.204 299.384Z" fill="#414141" fill-rule="nonzero" fill-opacity="1" style=""/>
          <path d="M646.046 302.524 638.121 302.524 638.121 259.45C638.127 259.049 637.809 258.718 637.408 258.707L629.978 258.707 629.978 252.763C629.983 252.347 629.651 252.006 629.235 252 629.235 252 629.235 252 629.235 252L593.303 252C592.893 252 592.56 252.333 592.56 252.743L592.56 258.687 584.744 258.687C584.339 258.681 584.007 259.005 584.001 259.41 584.001 259.417 584.001 259.423 584.001 259.43L584.001 279.679 558.432 279.679C558.027 279.674 557.695 279.997 557.689 280.402 557.689 280.409 557.689 280.416 557.689 280.422L557.689 302.524 552.954 302.524C552.543 302.524 552.211 302.857 552.211 303.267 552.211 303.677 552.543 304.01 552.954 304.01L604.954 304.01C605.364 304.01 605.697 303.677 605.697 303.267L605.697 292.776 616.842 292.776 616.842 303.257C616.847 303.665 617.176 303.995 617.585 304L646.046 304C646.457 304 646.789 303.667 646.789 303.257 646.789 302.847 646.457 302.514 646.046 302.514ZM635.674 302.524 618.328 302.524 618.328 292.033C618.328 291.622 617.995 291.29 617.585 291.29L604.954 291.29C604.545 291.295 604.216 291.625 604.211 292.033L604.211 302.524 559.145 302.524 559.145 281.165 584.744 281.165C585.152 281.16 585.482 280.83 585.487 280.422L585.487 260.193 593.303 260.193C593.712 260.187 594.041 259.858 594.046 259.45L594.046 253.506 628.492 253.506 628.492 259.45C628.492 259.86 628.825 260.193 629.235 260.193L636.635 260.193 636.635 302.524Z" fill="#414141" fill-rule="nonzero" fill-opacity="1" style=""/>
        </g>
      </g>
    </g>
  </g>
  <line style="fill: rgb(216, 216, 216); stroke: rgb(0, 184, 18); stroke-width: 2px;" x1="391.721" y1="392.915" x2="273.877" y2="282.489"/>
  <line style="fill: rgb(216, 216, 216); stroke: rgb(0, 184, 18); stroke-width: 2px;" x1="387.144" y1="119.72" x2="248.48" y2="238.482"/>
  <g transform="matrix(1.003352, 0, 0, 1.003352, -32.341816, 235.08493)" style="">
    <g clip-path="url(#clip-7)" transform="matrix(1, 0, 0, 1, -489.671265, -120.799492)">
      <g clip-path="url(#clip-8)">
        <g clip-path="url(#clip-9)">
          <path d="M608.877 263.224C608.603 263.224 608.381 263.002 608.381 262.729L608.381 256.834 614.226 256.834C614.5 256.834 614.722 257.056 614.722 257.33 614.722 257.603 614.5 257.825 614.226 257.825L609.372 257.825 609.372 262.778C609.346 263.033 609.132 263.226 608.877 263.224Z" fill="#414141" fill-rule="nonzero" fill-opacity="1" style=""/>
          <path d="M618.04 263.224C617.767 263.224 617.545 263.002 617.545 262.729L617.545 256.834 623.39 256.834C623.663 256.834 623.885 257.056 623.885 257.33 623.885 257.603 623.663 257.825 623.39 257.825L618.585 257.825 618.585 262.778C618.559 263.051 618.318 263.251 618.045 263.225 618.044 263.225 618.042 263.224 618.04 263.224Z" fill="#414141" fill-rule="nonzero" fill-opacity="1" style=""/>
          <path d="M599.763 272.269C599.489 272.269 599.267 272.047 599.267 271.774L599.267 265.869 605.112 265.869C605.386 265.869 605.607 266.091 605.607 266.365 605.607 266.638 605.386 266.86 605.112 266.86L600.258 266.86 600.258 271.813C600.233 272.069 600.02 272.265 599.763 272.269Z" fill="#414141" fill-rule="nonzero" fill-opacity="1" style=""/>
          <path d="M618.04 272.269C617.801 272.246 617.613 272.053 617.595 271.813L617.595 265.869 623.439 265.869C623.713 265.869 623.935 266.091 623.935 266.365 623.935 266.638 623.713 266.86 623.439 266.86L618.585 266.86 618.585 271.813C618.559 272.089 618.316 272.292 618.04 272.269Z" fill="#414141" fill-rule="nonzero" fill-opacity="1" style=""/>
          <path d="M599.763 281.304C599.489 281.304 599.267 281.082 599.267 280.809L599.267 274.914 605.112 274.914C605.386 274.914 605.607 275.136 605.607 275.409 605.607 275.683 605.386 275.905 605.112 275.905L600.258 275.905 600.258 280.809C600.258 281.082 600.036 281.304 599.763 281.304Z" fill="#414141" fill-rule="nonzero" fill-opacity="1" style=""/>
          <path d="M608.877 281.304C608.603 281.304 608.381 281.082 608.381 280.809L608.381 274.914 614.226 274.914C614.5 274.914 614.722 275.136 614.722 275.409 614.722 275.683 614.5 275.905 614.226 275.905L609.372 275.905 609.372 280.809C609.372 281.082 609.15 281.304 608.877 281.304Z" fill="#414141" fill-rule="nonzero" fill-opacity="1" style=""/>
          <path d="M618.04 281.304C617.767 281.304 617.545 281.082 617.545 280.809L617.545 274.914 623.39 274.914C623.663 274.914 623.885 275.136 623.885 275.409 623.885 275.683 623.663 275.905 623.39 275.905L618.585 275.905 618.585 280.809C618.587 281.082 618.366 281.305 618.092 281.306 618.075 281.306 618.058 281.306 618.04 281.304Z" fill="#414141" fill-rule="nonzero" fill-opacity="1" style=""/>
          <path d="M627.204 281.304C626.93 281.304 626.709 281.082 626.709 280.809L626.709 274.914 632.554 274.914C632.827 274.914 633.049 275.136 633.049 275.409 633.049 275.683 632.827 275.905 632.554 275.905L627.699 275.905 627.699 280.809C627.699 281.082 627.477 281.304 627.204 281.304Z" fill="#414141" fill-rule="nonzero" fill-opacity="1" style=""/>
          <path d="M599.584 290.349C599.311 290.349 599.089 290.127 599.089 289.853L599.089 283.909 604.934 283.909C605.207 283.909 605.429 284.131 605.429 284.405 605.429 284.678 605.207 284.9 604.934 284.9L600.08 284.9 600.08 289.853C600.08 290.127 599.858 290.349 599.584 290.349Z" fill="#414141" fill-rule="nonzero" fill-opacity="1" style=""/>
          <path d="M627.204 290.349C626.93 290.349 626.709 290.127 626.709 289.853L626.709 283.909 632.554 283.909C632.827 283.909 633.049 284.131 633.049 284.405 633.049 284.678 632.827 284.9 632.554 284.9L627.699 284.9 627.699 289.853C627.694 290.125 627.475 290.343 627.204 290.349Z" fill="#414141" fill-rule="nonzero" fill-opacity="1" style=""/>
          <path d="M590.549 272.269C590.276 272.269 590.054 272.047 590.054 271.774L590.054 265.869 595.899 265.869C596.172 265.869 596.394 266.091 596.394 266.365 596.394 266.638 596.172 266.86 595.899 266.86L591.045 266.86 591.045 271.813C591.02 272.069 590.806 272.265 590.549 272.269Z" fill="#414141" fill-rule="nonzero" fill-opacity="1" style=""/>
          <path d="M590.549 281.304C590.276 281.304 590.054 281.082 590.054 280.809L590.054 274.914 595.899 274.914C596.172 274.914 596.394 275.136 596.394 275.409 596.394 275.683 596.172 275.905 595.899 275.905L591.045 275.905 591.045 280.809C591.045 281.082 590.823 281.304 590.549 281.304Z" fill="#414141" fill-rule="nonzero" fill-opacity="1" style=""/>
          <path d="M563.108 290.349C562.834 290.349 562.613 290.127 562.613 289.853L562.613 283.909 568.458 283.909C568.731 283.909 568.953 284.131 568.953 284.405 568.953 284.678 568.731 284.9 568.458 284.9L563.603 284.9 563.603 289.853C563.598 290.125 563.379 290.343 563.108 290.349Z" fill="#414141" fill-rule="nonzero" fill-opacity="1" style=""/>
          <path d="M572.222 290.349C571.949 290.349 571.727 290.127 571.727 289.853L571.727 283.909 577.572 283.909C577.845 283.909 578.067 284.131 578.067 284.405 578.067 284.678 577.845 284.9 577.572 284.9L572.717 284.9 572.717 289.853C572.712 290.125 572.493 290.343 572.222 290.349Z" fill="#414141" fill-rule="nonzero" fill-opacity="1" style=""/>
          <path d="M581.386 290.349C581.112 290.349 580.89 290.127 580.89 289.853L580.89 283.909 586.735 283.909C587.009 283.909 587.231 284.131 587.231 284.405 587.231 284.678 587.009 284.9 586.735 284.9L581.931 284.9 581.931 289.853C581.926 290.132 581.696 290.355 581.417 290.35 581.407 290.35 581.396 290.349 581.386 290.349Z" fill="#414141" fill-rule="nonzero" fill-opacity="1" style=""/>
          <path d="M563.108 299.384C562.834 299.384 562.613 299.162 562.613 298.888L562.613 292.994 568.458 292.994C568.731 292.994 568.953 293.216 568.953 293.489 568.953 293.763 568.731 293.984 568.458 293.984L563.603 293.984 563.603 298.888C563.603 299.162 563.381 299.384 563.108 299.384Z" fill="#414141" fill-rule="nonzero" fill-opacity="1" style=""/>
          <path d="M572.222 299.384C571.949 299.384 571.727 299.162 571.727 298.888L571.727 292.994 577.572 292.994C577.845 292.994 578.067 293.216 578.067 293.489 578.067 293.763 577.845 293.984 577.572 293.984L572.717 293.984 572.717 298.888C572.717 299.162 572.496 299.384 572.222 299.384Z" fill="#414141" fill-rule="nonzero" fill-opacity="1" style=""/>
          <path d="M627.204 299.384C626.93 299.384 626.709 299.162 626.709 298.888L626.709 292.994 632.554 292.994C632.827 292.994 633.049 293.216 633.049 293.489 633.049 293.763 632.827 293.984 632.554 293.984L627.699 293.984 627.699 298.888C627.699 299.162 627.477 299.384 627.204 299.384Z" fill="#414141" fill-rule="nonzero" fill-opacity="1" style=""/>
          <path d="M646.046 302.524 638.121 302.524 638.121 259.45C638.127 259.049 637.809 258.718 637.408 258.707L629.978 258.707 629.978 252.763C629.983 252.347 629.651 252.006 629.235 252 629.235 252 629.235 252 629.235 252L593.303 252C592.893 252 592.56 252.333 592.56 252.743L592.56 258.687 584.744 258.687C584.339 258.681 584.007 259.005 584.001 259.41 584.001 259.417 584.001 259.423 584.001 259.43L584.001 279.679 558.432 279.679C558.027 279.674 557.695 279.997 557.689 280.402 557.689 280.409 557.689 280.416 557.689 280.422L557.689 302.524 552.954 302.524C552.543 302.524 552.211 302.857 552.211 303.267 552.211 303.677 552.543 304.01 552.954 304.01L604.954 304.01C605.364 304.01 605.697 303.677 605.697 303.267L605.697 292.776 616.842 292.776 616.842 303.257C616.847 303.665 617.176 303.995 617.585 304L646.046 304C646.457 304 646.789 303.667 646.789 303.257 646.789 302.847 646.457 302.514 646.046 302.514ZM635.674 302.524 618.328 302.524 618.328 292.033C618.328 291.622 617.995 291.29 617.585 291.29L604.954 291.29C604.545 291.295 604.216 291.625 604.211 292.033L604.211 302.524 559.145 302.524 559.145 281.165 584.744 281.165C585.152 281.16 585.482 280.83 585.487 280.422L585.487 260.193 593.303 260.193C593.712 260.187 594.041 259.858 594.046 259.45L594.046 253.506 628.492 253.506 628.492 259.45C628.492 259.86 628.825 260.193 629.235 260.193L636.635 260.193 636.635 302.524Z" fill="#414141" fill-rule="nonzero" fill-opacity="1" style=""/>
        </g>
      </g>
    </g>
  </g>
  <g transform="matrix(1.003352, 0, 0, 1.003352, 284.059967, -63.770473)" style="">
    <g clip-path="url(#clip-10)" transform="matrix(1, 0, 0, 1, -489.671265, -120.799492)">
      <g clip-path="url(#clip-11)">
        <g clip-path="url(#clip-12)">
          <path d="M608.877 263.224C608.603 263.224 608.381 263.002 608.381 262.729L608.381 256.834 614.226 256.834C614.5 256.834 614.722 257.056 614.722 257.33 614.722 257.603 614.5 257.825 614.226 257.825L609.372 257.825 609.372 262.778C609.346 263.033 609.132 263.226 608.877 263.224Z" fill="#414141" fill-rule="nonzero" fill-opacity="1" style=""/>
          <path d="M618.04 263.224C617.767 263.224 617.545 263.002 617.545 262.729L617.545 256.834 623.39 256.834C623.663 256.834 623.885 257.056 623.885 257.33 623.885 257.603 623.663 257.825 623.39 257.825L618.585 257.825 618.585 262.778C618.559 263.051 618.318 263.251 618.045 263.225 618.044 263.225 618.042 263.224 618.04 263.224Z" fill="#414141" fill-rule="nonzero" fill-opacity="1" style=""/>
          <path d="M599.763 272.269C599.489 272.269 599.267 272.047 599.267 271.774L599.267 265.869 605.112 265.869C605.386 265.869 605.607 266.091 605.607 266.365 605.607 266.638 605.386 266.86 605.112 266.86L600.258 266.86 600.258 271.813C600.233 272.069 600.02 272.265 599.763 272.269Z" fill="#414141" fill-rule="nonzero" fill-opacity="1" style=""/>
          <path d="M618.04 272.269C617.801 272.246 617.613 272.053 617.595 271.813L617.595 265.869 623.439 265.869C623.713 265.869 623.935 266.091 623.935 266.365 623.935 266.638 623.713 266.86 623.439 266.86L618.585 266.86 618.585 271.813C618.559 272.089 618.316 272.292 618.04 272.269Z" fill="#414141" fill-rule="nonzero" fill-opacity="1" style=""/>
          <path d="M599.763 281.304C599.489 281.304 599.267 281.082 599.267 280.809L599.267 274.914 605.112 274.914C605.386 274.914 605.607 275.136 605.607 275.409 605.607 275.683 605.386 275.905 605.112 275.905L600.258 275.905 600.258 280.809C600.258 281.082 600.036 281.304 599.763 281.304Z" fill="#414141" fill-rule="nonzero" fill-opacity="1" style=""/>
          <path d="M608.877 281.304C608.603 281.304 608.381 281.082 608.381 280.809L608.381 274.914 614.226 274.914C614.5 274.914 614.722 275.136 614.722 275.409 614.722 275.683 614.5 275.905 614.226 275.905L609.372 275.905 609.372 280.809C609.372 281.082 609.15 281.304 608.877 281.304Z" fill="#414141" fill-rule="nonzero" fill-opacity="1" style=""/>
          <path d="M618.04 281.304C617.767 281.304 617.545 281.082 617.545 280.809L617.545 274.914 623.39 274.914C623.663 274.914 623.885 275.136 623.885 275.409 623.885 275.683 623.663 275.905 623.39 275.905L618.585 275.905 618.585 280.809C618.587 281.082 618.366 281.305 618.092 281.306 618.075 281.306 618.058 281.306 618.04 281.304Z" fill="#414141" fill-rule="nonzero" fill-opacity="1" style=""/>
          <path d="M627.204 281.304C626.93 281.304 626.709 281.082 626.709 280.809L626.709 274.914 632.554 274.914C632.827 274.914 633.049 275.136 633.049 275.409 633.049 275.683 632.827 275.905 632.554 275.905L627.699 275.905 627.699 280.809C627.699 281.082 627.477 281.304 627.204 281.304Z" fill="#414141" fill-rule="nonzero" fill-opacity="1" style=""/>
          <path d="M599.584 290.349C599.311 290.349 599.089 290.127 599.089 289.853L599.089 283.909 604.934 283.909C605.207 283.909 605.429 284.131 605.429 284.405 605.429 284.678 605.207 284.9 604.934 284.9L600.08 284.9 600.08 289.853C600.08 290.127 599.858 290.349 599.584 290.349Z" fill="#414141" fill-rule="nonzero" fill-opacity="1" style=""/>
          <path d="M627.204 290.349C626.93 290.349 626.709 290.127 626.709 289.853L626.709 283.909 632.554 283.909C632.827 283.909 633.049 284.131 633.049 284.405 633.049 284.678 632.827 284.9 632.554 284.9L627.699 284.9 627.699 289.853C627.694 290.125 627.475 290.343 627.204 290.349Z" fill="#414141" fill-rule="nonzero" fill-opacity="1" style=""/>
          <path d="M590.549 272.269C590.276 272.269 590.054 272.047 590.054 271.774L590.054 265.869 595.899 265.869C596.172 265.869 596.394 266.091 596.394 266.365 596.394 266.638 596.172 266.86 595.899 266.86L591.045 266.86 591.045 271.813C591.02 272.069 590.806 272.265 590.549 272.269Z" fill="#414141" fill-rule="nonzero" fill-opacity="1" style=""/>
          <path d="M590.549 281.304C590.276 281.304 590.054 281.082 590.054 280.809L590.054 274.914 595.899 274.914C596.172 274.914 596.394 275.136 596.394 275.409 596.394 275.683 596.172 275.905 595.899 275.905L591.045 275.905 591.045 280.809C591.045 281.082 590.823 281.304 590.549 281.304Z" fill="#414141" fill-rule="nonzero" fill-opacity="1" style=""/>
          <path d="M563.108 290.349C562.834 290.349 562.613 290.127 562.613 289.853L562.613 283.909 568.458 283.909C568.731 283.909 568.953 284.131 568.953 284.405 568.953 284.678 568.731 284.9 568.458 284.9L563.603 284.9 563.603 289.853C563.598 290.125 563.379 290.343 563.108 290.349Z" fill="#414141" fill-rule="nonzero" fill-opacity="1" style=""/>
          <path d="M572.222 290.349C571.949 290.349 571.727 290.127 571.727 289.853L571.727 283.909 577.572 283.909C577.845 283.909 578.067 284.131 578.067 284.405 578.067 284.678 577.845 284.9 577.572 284.9L572.717 284.9 572.717 289.853C572.712 290.125 572.493 290.343 572.222 290.349Z" fill="#414141" fill-rule="nonzero" fill-opacity="1" style=""/>
          <path d="M581.386 290.349C581.112 290.349 580.89 290.127 580.89 289.853L580.89 283.909 586.735 283.909C587.009 283.909 587.231 284.131 587.231 284.405 587.231 284.678 587.009 284.9 586.735 284.9L581.931 284.9 581.931 289.853C581.926 290.132 581.696 290.355 581.417 290.35 581.407 290.35 581.396 290.349 581.386 290.349Z" fill="#414141" fill-rule="nonzero" fill-opacity="1" style=""/>
          <path d="M563.108 299.384C562.834 299.384 562.613 299.162 562.613 298.888L562.613 292.994 568.458 292.994C568.731 292.994 568.953 293.216 568.953 293.489 568.953 293.763 568.731 293.984 568.458 293.984L563.603 293.984 563.603 298.888C563.603 299.162 563.381 299.384 563.108 299.384Z" fill="#414141" fill-rule="nonzero" fill-opacity="1" style=""/>
          <path d="M572.222 299.384C571.949 299.384 571.727 299.162 571.727 298.888L571.727 292.994 577.572 292.994C577.845 292.994 578.067 293.216 578.067 293.489 578.067 293.763 577.845 293.984 577.572 293.984L572.717 293.984 572.717 298.888C572.717 299.162 572.496 299.384 572.222 299.384Z" fill="#414141" fill-rule="nonzero" fill-opacity="1" style=""/>
          <path d="M627.204 299.384C626.93 299.384 626.709 299.162 626.709 298.888L626.709 292.994 632.554 292.994C632.827 292.994 633.049 293.216 633.049 293.489 633.049 293.763 632.827 293.984 632.554 293.984L627.699 293.984 627.699 298.888C627.699 299.162 627.477 299.384 627.204 299.384Z" fill="#414141" fill-rule="nonzero" fill-opacity="1" style=""/>
          <path d="M646.046 302.524 638.121 302.524 638.121 259.45C638.127 259.049 637.809 258.718 637.408 258.707L629.978 258.707 629.978 252.763C629.983 252.347 629.651 252.006 629.235 252 629.235 252 629.235 252 629.235 252L593.303 252C592.893 252 592.56 252.333 592.56 252.743L592.56 258.687 584.744 258.687C584.339 258.681 584.007 259.005 584.001 259.41 584.001 259.417 584.001 259.423 584.001 259.43L584.001 279.679 558.432 279.679C558.027 279.674 557.695 279.997 557.689 280.402 557.689 280.409 557.689 280.416 557.689 280.422L557.689 302.524 552.954 302.524C552.543 302.524 552.211 302.857 552.211 303.267 552.211 303.677 552.543 304.01 552.954 304.01L604.954 304.01C605.364 304.01 605.697 303.677 605.697 303.267L605.697 292.776 616.842 292.776 616.842 303.257C616.847 303.665 617.176 303.995 617.585 304L646.046 304C646.457 304 646.789 303.667 646.789 303.257 646.789 302.847 646.457 302.514 646.046 302.514ZM635.674 302.524 618.328 302.524 618.328 292.033C618.328 291.622 617.995 291.29 617.585 291.29L604.954 291.29C604.545 291.295 604.216 291.625 604.211 292.033L604.211 302.524 559.145 302.524 559.145 281.165 584.744 281.165C585.152 281.16 585.482 280.83 585.487 280.422L585.487 260.193 593.303 260.193C593.712 260.187 594.041 259.858 594.046 259.45L594.046 253.506 628.492 253.506 628.492 259.45C628.492 259.86 628.825 260.193 629.235 260.193L636.635 260.193 636.635 302.524Z" fill="#414141" fill-rule="nonzero" fill-opacity="1" style=""/>
        </g>
      </g>
    </g>
  </g>
</svg>