<?xml version="1.0" encoding="utf-8"?>
<svg viewBox="0 0 500 500" xmlns="http://www.w3.org/2000/svg">
  <defs>
    <clipPath id="clip1">
      <rect x="552" y="252" width="95" height="52"/>
    </clipPath>
    <clipPath id="clip2">
      <rect x="552" y="252" width="95" height="52"/>
    </clipPath>
    <clipPath id="clip3">
      <rect x="552" y="252" width="95" height="52"/>
    </clipPath>
    <clipPath id="clip0">
      <rect x="642" y="293" width="66" height="68"/>
    </clipPath>
    <clipPath id="clip-1">
      <rect x="643" y="294" width="65" height="67"/>
    </clipPath>
    <clipPath id="clip-2">
      <rect x="643" y="294" width="65" height="67"/>
    </clipPath>
    <clipPath id="clip-3">
      <rect x="643" y="294" width="65" height="67"/>
    </clipPath>
    <clipPath id="clip-4">
      <rect x="952" y="182" width="64" height="67"/>
    </clipPath>
    <clipPath id="clip-5">
      <rect x="953" y="183" width="63" height="66"/>
    </clipPath>
    <clipPath id="clip-6">
      <rect x="953" y="183" width="63" height="66"/>
    </clipPath>
    <clipPath id="clip-7">
      <rect x="953" y="183" width="63" height="66"/>
    </clipPath>
  </defs>
  <path d="M 500.5 -0.634 L 500.5 500.366 L -0.5 500.366 L -0.5 -0.634 Z M 0.5 499.366 L 499.5 499.366 L 499.5 0.366 L 0.5 0.366 Z" style=""/>
  <g transform="matrix(1.876838, 0, 0, 1.876838, 25.678745, -182.602127)" style="">
    <g clip-path="url(#clip1)" transform="matrix(1, 0, 0, 1, -489.671265, -120.799492)">
      <g clip-path="url(#clip2)">
        <g clip-path="url(#clip3)">
          <path d="M608.877 263.224C608.603 263.224 608.381 263.002 608.381 262.729L608.381 256.834 614.226 256.834C614.5 256.834 614.722 257.056 614.722 257.33 614.722 257.603 614.5 257.825 614.226 257.825L609.372 257.825 609.372 262.778C609.346 263.033 609.132 263.226 608.877 263.224Z" fill="#414141" fill-rule="nonzero" fill-opacity="1" style=""/>
          <path d="M618.04 263.224C617.767 263.224 617.545 263.002 617.545 262.729L617.545 256.834 623.39 256.834C623.663 256.834 623.885 257.056 623.885 257.33 623.885 257.603 623.663 257.825 623.39 257.825L618.585 257.825 618.585 262.778C618.559 263.051 618.318 263.251 618.045 263.225 618.044 263.225 618.042 263.224 618.04 263.224Z" fill="#414141" fill-rule="nonzero" fill-opacity="1" style=""/>
          <path d="M599.763 272.269C599.489 272.269 599.267 272.047 599.267 271.774L599.267 265.869 605.112 265.869C605.386 265.869 605.607 266.091 605.607 266.365 605.607 266.638 605.386 266.86 605.112 266.86L600.258 266.86 600.258 271.813C600.233 272.069 600.02 272.265 599.763 272.269Z" fill="#414141" fill-rule="nonzero" fill-opacity="1" style=""/>
          <path d="M618.04 272.269C617.801 272.246 617.613 272.053 617.595 271.813L617.595 265.869 623.439 265.869C623.713 265.869 623.935 266.091 623.935 266.365 623.935 266.638 623.713 266.86 623.439 266.86L618.585 266.86 618.585 271.813C618.559 272.089 618.316 272.292 618.04 272.269Z" fill="#414141" fill-rule="nonzero" fill-opacity="1" style=""/>
          <path d="M599.763 281.304C599.489 281.304 599.267 281.082 599.267 280.809L599.267 274.914 605.112 274.914C605.386 274.914 605.607 275.136 605.607 275.409 605.607 275.683 605.386 275.905 605.112 275.905L600.258 275.905 600.258 280.809C600.258 281.082 600.036 281.304 599.763 281.304Z" fill="#414141" fill-rule="nonzero" fill-opacity="1" style=""/>
          <path d="M608.877 281.304C608.603 281.304 608.381 281.082 608.381 280.809L608.381 274.914 614.226 274.914C614.5 274.914 614.722 275.136 614.722 275.409 614.722 275.683 614.5 275.905 614.226 275.905L609.372 275.905 609.372 280.809C609.372 281.082 609.15 281.304 608.877 281.304Z" fill="#414141" fill-rule="nonzero" fill-opacity="1" style=""/>
          <path d="M618.04 281.304C617.767 281.304 617.545 281.082 617.545 280.809L617.545 274.914 623.39 274.914C623.663 274.914 623.885 275.136 623.885 275.409 623.885 275.683 623.663 275.905 623.39 275.905L618.585 275.905 618.585 280.809C618.587 281.082 618.366 281.305 618.092 281.306 618.075 281.306 618.058 281.306 618.04 281.304Z" fill="#414141" fill-rule="nonzero" fill-opacity="1" style=""/>
          <path d="M627.204 281.304C626.93 281.304 626.709 281.082 626.709 280.809L626.709 274.914 632.554 274.914C632.827 274.914 633.049 275.136 633.049 275.409 633.049 275.683 632.827 275.905 632.554 275.905L627.699 275.905 627.699 280.809C627.699 281.082 627.477 281.304 627.204 281.304Z" fill="#414141" fill-rule="nonzero" fill-opacity="1" style=""/>
          <path d="M599.584 290.349C599.311 290.349 599.089 290.127 599.089 289.853L599.089 283.909 604.934 283.909C605.207 283.909 605.429 284.131 605.429 284.405 605.429 284.678 605.207 284.9 604.934 284.9L600.08 284.9 600.08 289.853C600.08 290.127 599.858 290.349 599.584 290.349Z" fill="#414141" fill-rule="nonzero" fill-opacity="1" style=""/>
          <path d="M627.204 290.349C626.93 290.349 626.709 290.127 626.709 289.853L626.709 283.909 632.554 283.909C632.827 283.909 633.049 284.131 633.049 284.405 633.049 284.678 632.827 284.9 632.554 284.9L627.699 284.9 627.699 289.853C627.694 290.125 627.475 290.343 627.204 290.349Z" fill="#414141" fill-rule="nonzero" fill-opacity="1" style=""/>
          <path d="M590.549 272.269C590.276 272.269 590.054 272.047 590.054 271.774L590.054 265.869 595.899 265.869C596.172 265.869 596.394 266.091 596.394 266.365 596.394 266.638 596.172 266.86 595.899 266.86L591.045 266.86 591.045 271.813C591.02 272.069 590.806 272.265 590.549 272.269Z" fill="#414141" fill-rule="nonzero" fill-opacity="1" style=""/>
          <path d="M590.549 281.304C590.276 281.304 590.054 281.082 590.054 280.809L590.054 274.914 595.899 274.914C596.172 274.914 596.394 275.136 596.394 275.409 596.394 275.683 596.172 275.905 595.899 275.905L591.045 275.905 591.045 280.809C591.045 281.082 590.823 281.304 590.549 281.304Z" fill="#414141" fill-rule="nonzero" fill-opacity="1" style=""/>
          <path d="M563.108 290.349C562.834 290.349 562.613 290.127 562.613 289.853L562.613 283.909 568.458 283.909C568.731 283.909 568.953 284.131 568.953 284.405 568.953 284.678 568.731 284.9 568.458 284.9L563.603 284.9 563.603 289.853C563.598 290.125 563.379 290.343 563.108 290.349Z" fill="#414141" fill-rule="nonzero" fill-opacity="1" style=""/>
          <path d="M572.222 290.349C571.949 290.349 571.727 290.127 571.727 289.853L571.727 283.909 577.572 283.909C577.845 283.909 578.067 284.131 578.067 284.405 578.067 284.678 577.845 284.9 577.572 284.9L572.717 284.9 572.717 289.853C572.712 290.125 572.493 290.343 572.222 290.349Z" fill="#414141" fill-rule="nonzero" fill-opacity="1" style=""/>
          <path d="M581.386 290.349C581.112 290.349 580.89 290.127 580.89 289.853L580.89 283.909 586.735 283.909C587.009 283.909 587.231 284.131 587.231 284.405 587.231 284.678 587.009 284.9 586.735 284.9L581.931 284.9 581.931 289.853C581.926 290.132 581.696 290.355 581.417 290.35 581.407 290.35 581.396 290.349 581.386 290.349Z" fill="#414141" fill-rule="nonzero" fill-opacity="1" style=""/>
          <path d="M563.108 299.384C562.834 299.384 562.613 299.162 562.613 298.888L562.613 292.994 568.458 292.994C568.731 292.994 568.953 293.216 568.953 293.489 568.953 293.763 568.731 293.984 568.458 293.984L563.603 293.984 563.603 298.888C563.603 299.162 563.381 299.384 563.108 299.384Z" fill="#414141" fill-rule="nonzero" fill-opacity="1" style=""/>
          <path d="M572.222 299.384C571.949 299.384 571.727 299.162 571.727 298.888L571.727 292.994 577.572 292.994C577.845 292.994 578.067 293.216 578.067 293.489 578.067 293.763 577.845 293.984 577.572 293.984L572.717 293.984 572.717 298.888C572.717 299.162 572.496 299.384 572.222 299.384Z" fill="#414141" fill-rule="nonzero" fill-opacity="1" style=""/>
          <path d="M627.204 299.384C626.93 299.384 626.709 299.162 626.709 298.888L626.709 292.994 632.554 292.994C632.827 292.994 633.049 293.216 633.049 293.489 633.049 293.763 632.827 293.984 632.554 293.984L627.699 293.984 627.699 298.888C627.699 299.162 627.477 299.384 627.204 299.384Z" fill="#414141" fill-rule="nonzero" fill-opacity="1" style=""/>
          <path d="M646.046 302.524 638.121 302.524 638.121 259.45C638.127 259.049 637.809 258.718 637.408 258.707L629.978 258.707 629.978 252.763C629.983 252.347 629.651 252.006 629.235 252 629.235 252 629.235 252 629.235 252L593.303 252C592.893 252 592.56 252.333 592.56 252.743L592.56 258.687 584.744 258.687C584.339 258.681 584.007 259.005 584.001 259.41 584.001 259.417 584.001 259.423 584.001 259.43L584.001 279.679 558.432 279.679C558.027 279.674 557.695 279.997 557.689 280.402 557.689 280.409 557.689 280.416 557.689 280.422L557.689 302.524 552.954 302.524C552.543 302.524 552.211 302.857 552.211 303.267 552.211 303.677 552.543 304.01 552.954 304.01L604.954 304.01C605.364 304.01 605.697 303.677 605.697 303.267L605.697 292.776 616.842 292.776 616.842 303.257C616.847 303.665 617.176 303.995 617.585 304L646.046 304C646.457 304 646.789 303.667 646.789 303.257 646.789 302.847 646.457 302.514 646.046 302.514ZM635.674 302.524 618.328 302.524 618.328 292.033C618.328 291.622 617.995 291.29 617.585 291.29L604.954 291.29C604.545 291.295 604.216 291.625 604.211 292.033L604.211 302.524 559.145 302.524 559.145 281.165 584.744 281.165C585.152 281.16 585.482 280.83 585.487 280.422L585.487 260.193 593.303 260.193C593.712 260.187 594.041 259.858 594.046 259.45L594.046 253.506 628.492 253.506 628.492 259.45C628.492 259.86 628.825 260.193 629.235 260.193L636.635 260.193 636.635 302.524Z" fill="#414141" fill-rule="nonzero" fill-opacity="1" style=""/>
        </g>
      </g>
    </g>
  </g>
  <g clip-path="url(#clip0)" transform="matrix(1, 0, 0, 1, -567.773865, 27.672302)">
    <g clip-path="url(#clip-1)">
      <g clip-path="url(#clip-2)">
        <g clip-path="url(#clip-3)">
          <path d="M64.5685 64.0915C64.1171 62.371 63.7829 60.6219 63.568 58.8562 62.9979 54.9589 62.4046 50.9335 59.5892 47.8156 57.7743 45.8146 55.9012 45.4888 53.7722 45.0583L52.6088 44.8373C52.2714 44.7675 50.9102 44.4068 49.3396 43.9764 47.7109 41.2191 47.7807 37.601 47.8505 34.6692 47.8505 33.5058 47.9436 32.2726 48.0134 31.0394 48.3858 27.283 48.237 23.4933 47.5713 19.7777L46.1868 13.763C44.8722 8.08561 42.6967 4.3511 39.2065 2.01268 35.1927-0.709672 28.7359-0.663136 24.0823 2.12902 19.2542 5.02587 16.4853 10.203 15.8338 17.4509 15.7121 19.4307 15.7121 21.4162 15.8338 23.3959 15.8338 24.4546 15.9036 25.5249 15.9036 26.6069 15.8188 28.867 15.5465 31.1162 15.0893 33.3313 14.7868 35.0299 14.4727 36.8215 14.333 38.555 14.1114 40.7213 13.5006 42.8299 12.5298 44.7791L8.5626 45.9425C6.63805 46.3171 4.86375 47.2427 3.45529 48.6067 2.53504 49.8034 1.91651 51.204 1.65202 52.6902L1.44261 53.5395C0.174509 58.5421-0.965619 64.0101 1.57059 65.4876 3.0132 66.3252 5.39816 66.3485 7.38757 66.3718 7.93436 66.3718 8.44626 66.3718 8.87672 66.3718 15.8571 66.7673 22.7095 66.9302 29.6433 66.9302 39.032 66.9302 48.4438 66.6394 57.972 66.3136 58.1111 66.3163 58.2481 66.2801 58.3676 66.2089 61.0201 65.9878 64.0333 65.569 64.5452 64.8477 64.6481 64.6076 64.6565 64.3375 64.5685 64.0915ZM16.02 38.7295C16.1479 37.0425 16.4621 35.3324 16.7529 33.6687 17.2265 31.3694 17.5067 29.0344 17.5906 26.6883 17.5906 25.5831 17.5906 24.4895 17.5208 23.4075 17.3984 21.5015 17.3984 19.5896 17.5208 17.6836 18.1257 10.9708 20.6154 6.25907 24.9316 3.65306 29.0849 1.1634 34.7739 1.09359 38.2525 3.49019 41.2889 5.56104 43.2784 8.95815 44.4883 14.1934L45.8727 20.15C46.4982 23.7296 46.6273 27.3781 46.2566 30.9929 46.1868 32.2377 46.117 33.4709 46.0938 34.6692 45.8542 37.6113 46.1942 40.5718 47.0943 43.3831 45.5121 42.9293 44.0927 42.4989 43.6041 42.3011 43.5372 42.2387 43.458 42.1912 43.3714 42.1615 43.1161 42.0545 42.8243 42.0806 42.5919 42.2313 41.7159 41.4174 41.0869 40.3731 40.777 39.2181 40.4604 37.956 40.2655 36.6665 40.1953 35.3673L40.1953 34.8786C43.0457 30.5043 43.0457 24.4895 43.0457 19.3356 43.0457 18.5213 43.0457 17.7185 43.0457 16.9507 43.1978 16.031 42.9384 15.091 42.336 14.3796 41.718 13.9568 40.9343 13.8572 40.2303 14.112 39.7192 14.202 39.2018 14.2527 38.6829 14.2632 36.5699 14.219 34.4785 13.8259 32.4937 13.0998 30.8372 12.663 29.4075 11.6157 28.4916 10.1681 28.3869 9.97031 28.2938 9.74926 28.2007 9.53985 27.996 9.03617 27.7177 8.56568 27.3747 8.14377 27.1724 7.88888 26.8449 7.76778 26.5254 7.82966 26.2091 7.90013 25.9556 8.13591 25.8623 8.44626 24.9106 11.7645 23.4296 14.9073 21.4763 17.7534 21.1766 18.1233 20.9478 18.5452 20.8015 18.9983 20.7075 19.3787 20.6645 19.7699 20.6736 20.1617L20.6736 21.4996C20.6736 25.5598 20.6038 29.7597 23.0003 33.3895 23.4346 34.0013 23.9129 34.5807 24.4313 35.1229 24.3964 35.774 24.3964 36.4264 24.4313 37.0774 24.5114 38.0267 24.4565 38.9824 24.2685 39.9161 24.0353 40.7859 23.5918 41.5849 22.9771 42.2429 22.7544 41.9816 22.4006 41.8727 22.0696 41.9637L14.6355 44.2091C15.3743 42.464 15.8412 40.616 16.02 38.7295ZM23.9311 44.3254 23.9311 43.8484C24.9369 42.9057 25.6515 41.6945 25.9903 40.3582 26.2164 39.2645 26.2869 38.1444 26.1997 37.0309 26.2055 36.9457 26.2055 36.8601 26.1997 36.775 27.5055 37.8133 28.9455 38.6704 30.481 39.3228 31.1546 39.6458 31.887 39.8278 32.6333 39.858 33.2957 39.827 33.9466 39.6731 34.5529 39.4042 36.0672 38.8121 37.4447 37.9174 38.6015 36.775 38.6901 37.7504 38.8654 38.7159 39.125 39.6602 39.5364 41.2578 40.4499 42.6811 41.731 43.7204 39.9993 47.1798 37.2456 50.0229 33.8432 51.8642 33.3618 52.1508 32.8343 52.3514 32.2843 52.4575 31.6247 52.4941 30.9669 52.3577 30.3763 52.062 27.3631 50.7241 25.5947 47.6993 23.9311 44.3254ZM33.9246 37.7871C33.5209 37.9713 33.0876 38.0817 32.6449 38.1129 32.135 38.0575 31.6367 37.9242 31.1674 37.7173 28.4776 36.6274 26.162 34.7806 24.5011 32.4006 22.3488 29.2245 22.3837 25.2922 22.4187 21.4996L22.4187 20.1384C22.4183 19.9237 22.4378 19.7096 22.4768 19.4985 22.5937 19.2116 22.7546 18.9447 22.9538 18.7074 24.607 16.3108 25.9259 13.7002 26.8745 10.9476 27.9826 12.7974 29.7624 14.1477 31.8422 14.717 34.0102 15.5055 36.2948 15.9263 38.6015 15.9618 39.218 15.9533 39.8326 15.8949 40.4397 15.7873 40.6695 15.7378 40.9029 15.7068 41.1377 15.6942 41.2153 16.0769 41.2466 16.4675 41.2308 16.8576 41.2308 17.6371 41.2308 18.4515 41.2308 19.2775 41.254 26.5952 41.2773 34.8205 33.9246 37.7871ZM55.9361 64.6965 55.843 64.6965C39.9976 65.2316 24.4313 65.5923 8.86508 64.6965 8.41136 64.6965 7.87619 64.6965 7.2945 64.6965 5.67737 64.6965 3.44365 64.6965 2.3966 64.045 1.34954 63.3935 1.57059 60.0545 3.09463 54.0398L3.30405 53.1672C3.50633 51.9489 3.98817 50.7941 4.71176 49.7934 5.92061 48.7171 7.40137 47.9928 8.99305 47.6993L21.7904 43.9648C23.5937 48.0134 25.7576 51.9806 29.655 53.714 30.5295 54.1384 31.5011 54.3232 32.4704 54.2492 33.2418 54.1218 33.9832 53.8536 34.6576 53.4581 38.5282 51.3823 41.6312 48.1203 43.511 44.1509 46.1752 45.198 52.1318 46.6406 52.2132 46.6522L53.3766 46.8849C55.3893 47.2572 56.8668 47.5247 58.2513 49.0953 60.7177 51.8177 61.2528 55.4126 61.8113 59.2169 62.0439 60.7991 62.2766 62.4395 62.6722 64.0101 60.4416 64.3664 58.1926 64.5956 55.9361 64.6965Z" fill="#414141" fill-rule="nonzero" fill-opacity="1" transform="matrix(1.0048 0 0 1 643.043 294)"/>
        </g>
      </g>
    </g>
  </g>
  <g clip-path="url(#clip-4)" transform="matrix(1, 0, 0, 1, -613.636733344898, 138.1952198134033)">
    <g clip-path="url(#clip-5)">
      <g clip-path="url(#clip-6)">
        <g clip-path="url(#clip-7)">
          <path d="M62.2346 53.2623C61.5812 48.7236 60.3212 46.0284 58.5243 45.2467 56.8383 44.5727 55.1121 44.0038 53.3556 43.5432 52.5506 43.3099 51.7572 43.0882 51.0221 42.8432 49.9954 42.5282 49.1553 42.2948 48.4203 42.0965 46.1857 41.641 44.1097 40.607 42.3998 39.0979 41.8793 38.6445 41.4583 38.0884 41.1631 37.4645 40.9294 36.962 40.5569 36.537 40.0896 36.2394L40.0896 32.7391C40.3783 32.1108 40.6126 31.4589 40.7897 30.7906L40.8364 30.3356C41.0721 29.4337 41.2513 28.5179 41.3731 27.5937 41.4878 27.0322 41.7779 26.5215 42.2015 26.1353 42.5754 25.7443 42.9006 25.3094 43.1699 24.8402 43.3261 24.5179 43.4399 24.1766 43.5082 23.8251 43.5082 23.6734 43.5782 23.5217 43.6249 23.3701 43.6716 23.2184 43.8349 22.845 43.9399 22.5883 44.128 22.1545 44.2916 21.7105 44.43 21.2582 45.0762 18.3024 45.0762 15.2418 44.43 12.2859 44.0451 10.4392 43.3925 8.65866 42.4932 7.00052 41.7106 5.26266 40.5077 3.74697 38.9929 2.59019 36.1418 0.675952 32.7349-0.235303 29.3088 1.70243e-06 28.221 0.0160076 27.1557 0.313462 26.2169 0.863399 25.6114 1.26327 25.1302 1.82521 24.8285 2.48518 24.4063 2.33521 23.9554 2.28334 23.5101 2.33351 22.6936 2.39859 21.9143 2.70297 21.2699 3.20857 20.2426 4.13762 19.4439 5.29166 18.9364 6.58049 18.8431 6.7555 18.7614 6.94218 18.6681 7.1172 18.27 7.81091 17.9715 8.55716 17.7813 9.33403 17.5767 10.4483 17.4441 11.5746 17.3846 12.7059 17.3146 14.004 17.3146 15.3049 17.3846 16.6029 17.3846 17.1163 17.3846 17.6413 17.3846 18.1663 17.3324 18.9043 17.3324 19.6452 17.3846 20.3832 17.5775 21.8672 18.0612 23.2984 18.8081 24.5952 19.0346 25.0192 19.288 25.4283 19.5665 25.8203 19.7228 26.0236 19.8986 26.2112 20.0915 26.3803L20.3948 26.6486C20.6802 26.854 20.9156 27.1213 21.0832 27.4304 21.2054 27.8737 21.2913 28.3264 21.3399 28.7838 21.3865 29.3084 21.4802 29.8278 21.6199 30.3356L21.7366 30.7323C21.9714 31.6582 22.3368 32.5461 22.8217 33.3691L22.6467 33.3691C22.7202 34.3245 22.6692 35.2854 22.495 36.2277 21.9842 36.5369 21.5778 36.992 21.3283 37.5345 21.0503 38.1266 20.6532 38.6549 20.1615 39.0862 18.4474 40.5958 16.3676 41.6296 14.1294 42.0848 13.3943 42.2831 12.5543 42.5165 11.5275 42.8315 10.7575 43.0765 9.96407 43.2982 9.19402 43.5316 7.43706 43.9903 5.71073 44.5592 4.0253 45.235 2.21683 46.0168 0.968405 48.7353 0.303356 53.2623 0.0478581 55.5865-0.0495953 57.9253 0.0116675 60.2628 0.0116675 61.6629 0.0116675 62.2696 0.291688 62.5963L0.291688 62.8763 2.33351 63.413C7.47889 65.2098 28.5621 65.9916 31.2457 65.9916L31.3273 65.9916C34.0225 65.9916 55.0941 65.2098 60.1928 63.4247L62.2463 62.853 62.2463 62.573C62.5146 62.293 62.5263 61.6746 62.5263 60.2395 62.5939 57.9098 62.4964 55.5782 62.2346 53.2623ZM40.7314 39.973C40.0803 44.2135 38.5244 48.2644 36.1694 51.8505 36.1694 51.7805 36.111 51.7105 36.076 51.6288 35.8497 50.9571 35.5441 50.3148 35.1659 49.7154L34.8393 49.2137C34.3944 48.5003 33.8909 47.8251 33.3341 47.1952 35.0376 45.9701 38.7595 40.9414 39.8096 38.5962 40.0613 39.09 40.3707 39.5521 40.7314 39.973ZM22.3667 39.2379C23.4436 41.6386 24.8027 43.9026 26.4153 45.9818 26.6609 46.2286 26.9262 46.4549 27.2087 46.6585 26.4476 47.2164 25.8217 47.938 25.3769 48.7703L24.0118 50.9405C23.7636 50.2843 23.5685 49.6093 23.4284 48.922 22.7525 45.9032 22.2731 42.8438 21.9933 39.763 22.0983 39.6696 22.2383 39.4246 22.3667 39.2379ZM29.2972 45.9234C28.6894 45.6318 28.1367 45.237 27.6637 44.7567 26.2005 42.8172 24.9599 40.7193 23.9651 38.5029 23.8832 38.1139 23.9114 37.7098 24.0468 37.3361 24.2295 36.621 24.3466 35.8906 24.3968 35.1543 25.4757 35.9954 26.6014 36.7744 27.7687 37.4878 28.8521 37.821 29.9852 37.9632 31.1173 37.9078 32.2971 37.9453 33.4761 37.8116 34.6176 37.5111L34.7692 37.4411C35.9872 36.6746 37.1562 35.8329 38.2695 34.9209L38.2695 37.5928C38.0362 38.7595 33.4392 45.165 32.1557 45.8301 31.2845 46.3583 30.2009 46.3936 29.2972 45.9234ZM20.3482 23.7551C19.7004 22.6643 19.2798 21.4539 19.1114 20.1965 19.0645 19.5361 19.0645 18.8734 19.1114 18.213 19.1114 17.6413 19.1114 17.0463 19.1114 16.4979 19.0415 15.266 19.0415 14.0311 19.1114 12.7993 19.1623 11.7501 19.2832 10.7055 19.4731 9.67239 19.633 9.05676 19.8723 8.46453 20.1848 7.91059 20.2898 7.72391 20.3832 7.52556 20.4765 7.33888 20.8819 6.29707 21.5112 5.35707 22.32 4.58534 22.6967 4.3012 23.1452 4.12748 23.6151 4.08364 23.944 4.08099 24.2672 4.16986 24.5485 4.34032L24.9569 4.51534C25.1755 4.61519 25.4266 4.61519 25.6452 4.51534 25.8666 4.4182 26.0363 4.23157 26.1119 4.00196 26.2581 3.33509 26.6391 2.74297 27.1854 2.33351 27.8734 1.96085 28.6431 1.76442 29.4255 1.7618 32.434 1.535 35.4329 2.31038 37.9545 3.96696 39.2468 4.94878 40.2701 6.24106 40.9297 7.72391 41.7536 9.23295 42.3585 10.8515 42.7265 12.5309 43.3014 15.223 43.3014 18.0062 42.7265 20.6982 42.6118 21.0957 42.4715 21.4855 42.3065 21.865 42.1781 22.145 42.0615 22.4367 41.9565 22.7284 41.8818 22.9455 41.8233 23.1678 41.7814 23.3934 41.7419 23.5982 41.6792 23.7978 41.5948 23.9884 41.7167 21.8235 41.6385 19.6519 41.3614 17.5013L41.3031 16.9996C41.0931 15.2611 40.883 13.4993 38.8996 12.1926 37.928 11.699 36.8283 11.5158 35.7493 11.6675L34.9093 11.6675C32.2625 11.7941 29.6116 11.5227 27.0453 10.8625 26.7874 10.788 26.5459 10.6653 26.3336 10.5008 25.9716 9.97661 25.8526 9.32203 26.0069 8.70398 26.0649 8.22392 25.7228 7.78774 25.2427 7.72974 24.7626 7.67174 24.3265 8.0139 24.2685 8.49397 24.1866 9.40898 24.0067 10.3126 23.7318 11.1892 23.4062 11.8228 22.9939 12.408 22.5067 12.9276L22.1216 13.3943C21.2283 14.661 20.8756 16.2309 21.1416 17.758 21.1416 18.1663 21.1416 18.563 21.1416 18.9247 21.1336 19.1125 21.1142 19.2995 21.0832 19.4848L21.0016 20.0682C20.8659 21.6201 20.8387 23.1795 20.9199 24.7352 20.7035 24.4161 20.5123 24.0806 20.3482 23.7318ZM22.53 26.427C22.7218 26.242 22.8204 25.9808 22.7984 25.7152 22.6196 23.8995 22.6196 22.0705 22.7984 20.2548 22.7984 20.1148 22.7984 19.9865 22.7984 19.8465 22.7984 19.7065 22.8684 19.3448 22.88 19.0881 22.88 18.6447 22.88 18.1897 22.88 17.7463 22.6694 16.6475 22.8819 15.5098 23.4751 14.5611L23.8368 14.1294C24.4385 13.4834 24.9417 12.752 25.3302 11.9592 25.6841 12.2116 26.0788 12.4011 26.497 12.5193 29.2318 13.2402 32.0607 13.5391 34.8859 13.406L35.761 13.406C36.5057 13.302 37.2646 13.4196 37.9428 13.7444 39.2379 14.5728 39.3546 15.6462 39.5529 17.2446L39.5529 17.758C39.9181 20.29 39.9573 22.8583 39.6696 25.4002 39.6333 25.7094 39.7617 26.0149 40.008 26.2053 39.8145 26.5686 39.6881 26.9639 39.6346 27.372 39.5325 28.1981 39.3765 29.0165 39.1679 29.8222L39.0512 30.2306C38.8453 31.1832 38.4484 32.0842 37.8845 32.8791 36.6931 34.0361 35.374 35.0538 33.9525 35.9127 32.1817 36.2328 30.3679 36.2328 28.5971 35.9127 27.1455 35.0433 25.7988 34.0098 24.5835 32.8324 24.019 32.0379 23.6221 31.1367 23.4167 30.1839L23.3001 29.7755C23.1896 29.3498 23.1077 28.9172 23.055 28.4804 22.9979 27.924 22.8925 27.3736 22.74 26.8353 22.6813 26.6862 22.6111 26.5419 22.53 26.4036ZM31.2573 64.2648C28.7138 64.2648 7.78225 63.4831 2.87021 61.7679L1.90181 61.4996C1.87628 61.4142 1.84104 61.3319 1.7968 61.2546 1.7968 61.0095 1.7968 60.6712 1.7968 60.2278 1.74297 57.9917 1.83652 55.7545 2.07682 53.5306 2.87021 48.0936 4.31699 47.0668 4.74869 46.8802 6.36725 46.2365 8.02316 45.691 9.70739 45.2467 10.5124 45.0133 11.3292 44.78 12.1109 44.535 13.1143 44.2316 13.931 43.9983 14.6544 43.8116 16.733 43.3723 18.6891 42.48 20.3832 41.1981 20.6812 43.9437 21.1331 46.6704 21.7366 49.3653 21.964 50.7546 22.4937 52.0769 23.2884 53.239 23.4536 53.4517 23.7075 53.5765 23.9768 53.5773 24.264 53.5681 24.5274 53.4144 24.6768 53.169L26.8353 49.7154C27.1543 49.1103 27.5952 48.5779 28.1304 48.1519 28.6555 47.8136 29.2388 47.7202 29.4022 47.8602 29.7807 47.9756 30.1733 48.0385 30.5689 48.0469 30.863 48.0447 31.1562 48.0134 31.444 47.9536 32.1758 48.5994 32.8121 49.3457 33.3341 50.1704L33.6608 50.6838C33.9658 51.1787 34.2125 51.7072 34.3959 52.2589 34.6085 52.8663 34.878 53.4524 35.201 54.009 35.3548 54.2517 35.6144 54.4075 35.901 54.429 36.1703 54.4282 36.4242 54.3034 36.5894 54.0907 39.4689 50.3271 41.398 45.9246 42.2131 41.2564 43.8885 42.5163 45.8204 43.3926 47.8719 43.8233 48.5953 44.0099 49.412 44.2433 50.4154 44.5466 51.2088 44.8033 52.0139 45.025 52.8306 45.2584 54.5105 45.7044 56.1624 46.2499 57.7776 46.8918 58.2093 47.0785 59.6678 48.0586 60.4612 53.554 60.7052 55.8009 60.7949 58.062 60.7295 60.3212 60.7295 60.7178 60.7295 61.0329 60.7295 61.2662 60.6896 61.3457 60.6545 61.4275 60.6245 61.5112L59.6094 61.7913C54.8374 63.4597 33.8358 64.2414 31.3157 64.2414L31.2573 64.2414Z" fill="#414141" fill-rule="nonzero" fill-opacity="1" transform="matrix(1.00758 0 0 1 953 183.004)"/>
        </g>
      </g>
    </g>
  </g>
  <line style="fill: rgb(216, 216, 216); stroke: rgb(0, 184, 18); stroke-width: 2px;" x1="109.765" y1="322.587" x2="223.462" y2="160.627"/>
  <line style="fill: rgb(216, 216, 216); stroke: rgb(0, 184, 18); stroke-width: 2px;" x1="366.65" y1="323.692" x2="266.19" y2="161.144"/>
</svg>